Adsworth-8PT G1 XT1.ufo
<glyph name="exclam" format="2">
  <advance width="898"/>
  <unicode hex="0021"/>
  <outline>
    <contour>
      <point x="154" y="534" type="line"/>
      <point x="144" y="1500" type="line"/>
      <point x="740" y="1500" type="line"/>
      <point x="730" y="534" type="line"/>
    </contour>
    <contour>
      <point x="446.0" y="-52.0" type="line" smooth="yes"/>
      <point x="599.0" y="-52.0"/>
      <point x="776" y="116"/>
      <point x="776" y="240" type="qcurve" smooth="yes"/>
      <point x="776" y="259" type="line" smooth="yes"/>
      <point x="776" y="383"/>
      <point x="602.0" y="554.0"/>
      <point x="446.0" y="554" type="qcurve" smooth="yes"/>
      <point x="441" y="554" type="line" smooth="yes"/>
      <point x="295.0" y="554"/>
      <point x="126" y="383"/>
      <point x="126" y="259" type="qcurve" smooth="yes"/>
      <point x="126" y="240" type="line" smooth="yes"/>
      <point x="126" y="113"/>
      <point x="292.0" y="-52.0"/>
      <point x="441" y="-52.0" type="qcurve" smooth="yes"/>
    </contour>
  </outline>
</glyph>
<glyph name="quotedbl" format="2">
  <advance width="1354"/>
  <unicode hex="0022"/>
  <outline>
    <contour>
      <point x="74" y="762" type="line"/>
      <point x="74" y="1500" type="line"/>
      <point x="647" y="1500" type="line"/>
      <point x="647" y="762" type="line"/>
    </contour>
    <contour>
      <point x="707" y="762" type="line"/>
      <point x="707" y="1500" type="line"/>
      <point x="1280" y="1500" type="line"/>
      <point x="1280" y="762" type="line"/>
    </contour>
  </outline>
</glyph>
<glyph name="numbersign" format="2">
  <advance width="1774"/>
  <unicode hex="0023"/>
  <outline>
    <contour>
      <point x="198" y="0" type="line"/>
      <point x="428" y="1500" type="line"/>
      <point x="878" y="1500" type="line"/>
      <point x="648" y="0" type="line"/>
    </contour>
    <contour>
      <point x="1612" y="210" type="line"/>
      <point x="82" y="210" type="line"/>
      <point x="82" y="710" type="line"/>
      <point x="1612" y="710" type="line"/>
    </contour>
    <contour>
      <point x="1682" y="805" type="line"/>
      <point x="132" y="805" type="line"/>
      <point x="142" y="1305" type="line"/>
      <point x="1692" y="1305" type="line"/>
    </contour>
    <contour>
      <point x="928" y="0" type="line"/>
      <point x="1158" y="1500" type="line"/>
      <point x="1608" y="1500" type="line"/>
      <point x="1378" y="0" type="line"/>
    </contour>
  </outline>
</glyph>
<glyph name="dollar" format="2">
  <advance width="1660"/>
  <unicode hex="0024"/>
  <outline>
    <contour>
      <point x="1031" y="390" type="line" smooth="yes"/>
      <point x="1031.0" y="406.0"/>
      <point x="968" y="420"/>
      <point x="669" y="482" type="qcurve" smooth="yes"/>
      <point x="312" y="566"/>
      <point x="63" y="823"/>
      <point x="63" y="1010.0" type="qcurve" smooth="yes"/>
      <point x="63" y="1015.0" type="line" smooth="yes"/>
      <point x="63" y="1225.0"/>
      <point x="475" y="1514"/>
      <point x="806" y="1514.0" type="qcurve" smooth="yes"/>
      <point x="817" y="1514.0" type="line" smooth="yes"/>
      <point x="1166" y="1514"/>
      <point x="1541.0" y="1297.0"/>
      <point x="1536" y="1081.0" type="qcurve" smooth="yes"/>
      <point x="1536" y="1038.0" type="line"/>
      <point x="971" y="1038.0" type="line"/>
      <point x="971.0" y="1147" type="line" smooth="yes"/>
      <point x="971.0" y="1133.0"/>
      <point x="912" y="1107"/>
      <point x="812.0" y="1107" type="qcurve" smooth="yes"/>
      <point x="793.0" y="1107" type="line" smooth="yes"/>
      <point x="719" y="1107"/>
      <point x="647.0" y="1061"/>
      <point x="647.0" y="1073" type="qcurve" smooth="yes"/>
      <point x="647.0" y="1038" type="line" smooth="yes"/>
      <point x="647" y="1073"/>
      <point x="699" y="1062"/>
      <point x="985" y="1029" type="qcurve" smooth="yes"/>
      <point x="1302.0" y="990"/>
      <point x="1610.0" y="706.0"/>
      <point x="1610" y="488.0" type="qcurve" smooth="yes"/>
      <point x="1610" y="454.0" type="line" smooth="yes"/>
      <point x="1610.0" y="258.0"/>
      <point x="1189" y="-33"/>
      <point x="836" y="-33.0" type="qcurve" smooth="yes"/>
      <point x="830" y="-33.0" type="line" smooth="yes"/>
      <point x="457" y="-33"/>
      <point x="63" y="221.0"/>
      <point x="61" y="396.0" type="qcurve" smooth="yes"/>
      <point x="61" y="496.0" type="line"/>
      <point x="606.0" y="494.0" type="line"/>
      <point x="606.0" y="401" type="line" smooth="yes"/>
      <point x="606.0" y="379.0"/>
      <point x="712" y="338"/>
      <point x="821" y="338" type="qcurve" smooth="yes"/>
      <point x="825" y="338" type="line" smooth="yes"/>
      <point x="950" y="338"/>
      <point x="1031.0" y="379.0"/>
      <point x="1031" y="363" type="qcurve" smooth="yes"/>
    </contour>
    <contour>
      <point x="633" y="-130" type="line"/>
      <point x="633" y="201" type="line"/>
      <point x="1013" y="201" type="line"/>
      <point x="1013" y="-130" type="line"/>
    </contour>
    <contour>
      <point x="633" y="1280" type="line"/>
      <point x="633" y="1593" type="line"/>
      <point x="1013" y="1593" type="line"/>
      <point x="1013" y="1280" type="line"/>
    </contour>
  </outline>
</glyph>
<glyph name="percent" format="2">
  <advance width="2709"/>
  <unicode hex="0025"/>
  <outline>
    <contour>
      <point x="606.0" y="569" type="line" smooth="yes"/>
      <point x="349.0" y="569"/>
      <point x="-13.0" y="829"/>
      <point x="-13.0" y="1036" type="qcurve" smooth="yes"/>
      <point x="-13.0" y="1068" type="line" smooth="yes"/>
      <point x="-13.0" y="1275"/>
      <point x="345.0" y="1546"/>
      <point x="603.0" y="1546" type="qcurve" smooth="yes"/>
      <point x="609.0" y="1546" type="line" smooth="yes"/>
      <point x="871.0" y="1546"/>
      <point x="1232.0" y="1275"/>
      <point x="1232.0" y="1068" type="qcurve" smooth="yes"/>
      <point x="1232.0" y="1036" type="line" smooth="yes"/>
      <point x="1232.0" y="829"/>
      <point x="876.0" y="569"/>
      <point x="613.0" y="569" type="qcurve" smooth="yes"/>
    </contour>
    <contour>
      <point x="613" y="1004" type="line" smooth="yes"/>
      <point x="686" y="1004"/>
      <point x="764" y="1030"/>
      <point x="764" y="1049" type="qcurve" smooth="yes"/>
      <point x="764" y="1053" type="line" smooth="yes"/>
      <point x="764" y="1074"/>
      <point x="687" y="1100"/>
      <point x="613" y="1100" type="qcurve" smooth="yes"/>
      <point x="611" y="1100" type="line" smooth="yes"/>
      <point x="540" y="1100"/>
      <point x="464" y="1074"/>
      <point x="464" y="1053" type="qcurve" smooth="yes"/>
      <point x="464" y="1049" type="line" smooth="yes"/>
      <point x="464" y="1030"/>
      <point x="540" y="1004"/>
      <point x="611" y="1004" type="qcurve" smooth="yes"/>
    </contour>
    <contour>
      <point x="2086.0" y="-35.0" type="line" smooth="yes"/>
      <point x="1829.0" y="-35.0"/>
      <point x="1477.0" y="225"/>
      <point x="1477.0" y="432" type="qcurve" smooth="yes"/>
      <point x="1477.0" y="464" type="line" smooth="yes"/>
      <point x="1477.0" y="671"/>
      <point x="1825.0" y="942"/>
      <point x="2083.0" y="942" type="qcurve" smooth="yes"/>
      <point x="2089.0" y="942" type="line" smooth="yes"/>
      <point x="2351.0" y="942"/>
      <point x="2722.0" y="671"/>
      <point x="2722.0" y="464" type="qcurve" smooth="yes"/>
      <point x="2722.0" y="432" type="line" smooth="yes"/>
      <point x="2722.0" y="225"/>
      <point x="2356.0" y="-35.0"/>
      <point x="2093.0" y="-35.0" type="qcurve" smooth="yes"/>
    </contour>
    <contour>
      <point x="2093" y="386" type="line" smooth="yes"/>
      <point x="2166" y="386"/>
      <point x="2244" y="412"/>
      <point x="2244" y="431" type="qcurve" smooth="yes"/>
      <point x="2244" y="435" type="line" smooth="yes"/>
      <point x="2244" y="456"/>
      <point x="2167" y="482"/>
      <point x="2093" y="482" type="qcurve" smooth="yes"/>
      <point x="2091" y="482" type="line" smooth="yes"/>
      <point x="2020" y="482"/>
      <point x="1944" y="456"/>
      <point x="1944" y="435" type="qcurve" smooth="yes"/>
      <point x="1944" y="431" type="line" smooth="yes"/>
      <point x="1944" y="412"/>
      <point x="2020" y="386"/>
      <point x="2091" y="386" type="qcurve" smooth="yes"/>
    </contour>
    <contour>
      <point x="662" y="0" type="line"/>
      <point x="1632" y="1500" type="line"/>
      <point x="2012" y="1500" type="line"/>
      <point x="1052" y="0" type="line"/>
    </contour>
  </outline>
</glyph>
<glyph name="ampersand" format="2">
  <advance width="1785"/>
  <unicode hex="0026"/>
  <outline>
    <contour>
      <point x="979" y="834" type="line"/>
      <point x="1791" y="1141" type="line"/>
      <point x="1896" y="843" type="line"/>
      <point x="1071" y="571" type="line"/>
    </contour>
    <contour>
      <point x="898" y="617" type="line"/>
      <point x="831" y="617.0" type="line" smooth="yes"/>
      <point x="718" y="617"/>
      <point x="607.0" y="553.0"/>
      <point x="607.0" y="510.0" type="qcurve" smooth="yes"/>
      <point x="607.0" y="494" type="line" smooth="yes"/>
      <point x="607.0" y="430.0"/>
      <point x="698.0" y="349.0"/>
      <point x="850.0" y="349.0" type="qcurve" smooth="yes"/>
      <point x="892.0" y="349" type="line" smooth="yes"/>
      <point x="1016.0" y="349.0"/>
      <point x="1166.0" y="450.0"/>
      <point x="1166.0" y="517" type="qcurve" smooth="yes"/>
      <point x="1166.0" y="527.0" type="line" smooth="yes"/>
      <point x="1166" y="573"/>
      <point x="1144" y="685.0"/>
      <point x="1144" y="702.0" type="qcurve"/>
      <point x="1575" y="791.0" type="line"/>
      <point x="1597" y="764.0"/>
      <point x="1665" y="558.0"/>
      <point x="1665.0" y="484.0" type="qcurve" smooth="yes"/>
      <point x="1665" y="479.0" type="line" smooth="yes"/>
      <point x="1665.0" y="312.0"/>
      <point x="1304.0" y="-36.0"/>
      <point x="882" y="-36.0" type="qcurve" smooth="yes"/>
      <point x="860" y="-36.0" type="line" smooth="yes"/>
      <point x="420.0" y="-36"/>
      <point x="38" y="222.0"/>
      <point x="38.0" y="405.0" type="qcurve" smooth="yes"/>
      <point x="38.0" y="424.0" type="line" smooth="yes"/>
      <point x="38" y="575.0"/>
      <point x="236" y="772.0"/>
      <point x="400" y="806.0" type="qcurve"/>
      <point x="312" y="855.0"/>
      <point x="207.0" y="1013.0"/>
      <point x="207.0" y="1112.0" type="qcurve" smooth="yes"/>
      <point x="207.0" y="1138.0" type="line" smooth="yes"/>
      <point x="207.0" y="1305.0"/>
      <point x="487" y="1523.0"/>
      <point x="677" y="1523.0" type="qcurve" smooth="yes"/>
      <point x="683" y="1523.0" type="line" smooth="yes"/>
      <point x="887" y="1523.0"/>
      <point x="1184.0" y="1326.0"/>
      <point x="1175" y="1149.0" type="qcurve" smooth="yes"/>
      <point x="1175" y="1083.0" type="line"/>
      <point x="761" y="1083.0" type="line"/>
      <point x="761.0" y="1109" type="line" smooth="yes"/>
      <point x="761.0" y="1109"/>
      <point x="759.0" y="1111"/>
      <point x="742.0" y="1111" type="qcurve" smooth="yes"/>
      <point x="741.0" y="1111" type="line" smooth="yes"/>
      <point x="724.0" y="1111"/>
      <point x="697" y="1090"/>
      <point x="697.0" y="1069.0" type="qcurve" smooth="yes"/>
      <point x="697" y="1046.0" type="line" smooth="yes"/>
      <point x="697.0" y="1013.0"/>
      <point x="728" y="990"/>
      <point x="745" y="982.0" type="qcurve" smooth="yes"/>
      <point x="874.0" y="982" type="line"/>
    </contour>
  </outline>
</glyph>
<glyph name="parenleft" format="2">
  <advance width="1040"/>
  <unicode hex="0028"/>
  <outline>
    <contour>
      <point x="667.0" y="-383.0" type="line"/>
      <point x="-41" y="34.0"/>
      <point x="-40" y="1187.0"/>
      <point x="651" y="1607.0" type="qcurve"/>
      <point x="996" y="1268.0" type="line"/>
      <point x="503" y="938.0"/>
      <point x="565" y="221.0"/>
      <point x="1017" y="-69.0" type="qcurve"/>
    </contour>
  </outline>
</glyph>
<glyph name="asterisk" format="2">
  <advance width="1355"/>
  <unicode hex="002A"/>
  <outline>
    <contour>
      <point x="729.0" y="695" type="line"/>
      <point x="546" y="390" type="line"/>
      <point x="138" y="692" type="line"/>
      <point x="374" y="937" type="line"/>
      <point x="64" y="940" type="line"/>
      <point x="228" y="1438" type="line"/>
      <point x="505" y="1325" type="line"/>
      <point x="473" y="1602.0" type="line"/>
      <point x="985" y="1602.0" type="line"/>
      <point x="950" y="1325" type="line"/>
      <point x="1191" y="1435" type="line"/>
      <point x="1355" y="941" type="line"/>
      <point x="1084" y="937" type="line"/>
      <point x="1322" y="700" type="line"/>
      <point x="910" y="398" type="line"/>
    </contour>
  </outline>
</glyph>
<glyph name="plus" format="2">
  <advance width="1920"/>
  <unicode hex="002B"/>
  <outline>
    <contour>
      <point x="1778" y="490" type="line"/>
      <point x="150" y="500" type="line"/>
      <point x="150" y="1025" type="line"/>
      <point x="1778" y="1015" type="line"/>
    </contour>
    <contour>
      <point x="1232.0" y="1522.0" type="line"/>
      <point x="1232.0" y="2.0" type="line"/>
      <point x="687.0" y="2.0" type="line"/>
      <point x="687.0" y="1522.0" type="line"/>
    </contour>
  </outline>
</glyph>
<glyph name="comma" format="2">
  <advance width="1007"/>
  <unicode hex="002C"/>
  <outline>
    <contour>
      <point x="67.0" y="-126" type="line"/>
      <point x="291" y="335" type="line" smooth="yes"/>
      <point x="320" y="408"/>
      <point x="449.0" y="538.0"/>
      <point x="541" y="538" type="qcurve" smooth="yes"/>
      <point x="553" y="538.0" type="line" smooth="yes"/>
      <point x="658.0" y="538.0"/>
      <point x="801.0" y="419.0"/>
      <point x="801" y="339.0" type="qcurve" smooth="yes"/>
      <point x="801.0" y="322" type="line" smooth="yes"/>
      <point x="801.0" y="253.0"/>
      <point x="402" y="-142"/>
      <point x="263" y="-249.0" type="qcurve"/>
    </contour>
  </outline>
</glyph>
<glyph name="period" format="2">
  <advance width="1007"/>
  <unicode hex="002E"/>
  <outline>
    <contour>
      <point x="499" y="-40" type="line" smooth="yes"/>
      <point x="641" y="-40"/>
      <point x="822" y="129"/>
      <point x="822" y="255" type="qcurve" smooth="yes"/>
      <point x="822" y="273" type="line" smooth="yes"/>
      <point x="822" y="397"/>
      <point x="645" y="569"/>
      <point x="499" y="569" type="qcurve" smooth="yes"/>
      <point x="494" y="569" type="line" smooth="yes"/>
      <point x="358" y="569"/>
      <point x="185" y="397"/>
      <point x="185" y="273" type="qcurve" smooth="yes"/>
      <point x="185" y="255" type="line" smooth="yes"/>
      <point x="185" y="127"/>
      <point x="356" y="-40"/>
      <point x="494" y="-40" type="qcurve" smooth="yes"/>
    </contour>
  </outline>
</glyph>
<glyph name="slash" format="2">
  <advance width="1060"/>
  <unicode hex="002F"/>
  <outline>
    <contour>
      <point x="-100" y="0" type="line"/>
      <point x="620" y="1500" type="line"/>
      <point x="1160" y="1500" type="line"/>
      <point x="440" y="0" type="line"/>
    </contour>
  </outline>
</glyph>
<glyph name="zero" format="2">
  <advance width="1681"/>
  <unicode hex="0030"/>
  <outline>
    <contour>
      <point x="839" y="-25.0" type="line" smooth="yes"/>
      <point x="501.0" y="-25"/>
      <point x="81" y="402"/>
      <point x="81" y="724.0" type="qcurve" smooth="yes"/>
      <point x="81" y="775.0" type="line" smooth="yes"/>
      <point x="81" y="1097"/>
      <point x="496.0" y="1524.0"/>
      <point x="834" y="1524.0" type="qcurve" smooth="yes"/>
      <point x="843" y="1524.0" type="line" smooth="yes"/>
      <point x="1188.0" y="1524.0"/>
      <point x="1600" y="1097"/>
      <point x="1600" y="775.0" type="qcurve" smooth="yes"/>
      <point x="1600" y="724.0" type="line" smooth="yes"/>
      <point x="1600" y="402"/>
      <point x="1194.0" y="-25.0"/>
      <point x="848" y="-25.0" type="qcurve" smooth="yes"/>
    </contour>
    <contour>
      <point x="841.0" y="333" type="line" smooth="yes"/>
      <point x="919.0" y="333.0"/>
      <point x="966.0" y="398.0"/>
      <point x="966.0" y="557" type="qcurve" smooth="yes"/>
      <point x="966.0" y="928" type="line" smooth="yes"/>
      <point x="966.0" y="1081.0"/>
      <point x="920.0" y="1136.0"/>
      <point x="841.0" y="1136" type="qcurve" smooth="yes"/>
      <point x="839.0" y="1136" type="line" smooth="yes"/>
      <point x="758.0" y="1136.0"/>
      <point x="716.0" y="1081.0"/>
      <point x="716.0" y="928" type="qcurve" smooth="yes"/>
      <point x="716.0" y="557" type="line" smooth="yes"/>
      <point x="716.0" y="398.0"/>
      <point x="757.0" y="333"/>
      <point x="839.0" y="333" type="qcurve" smooth="yes"/>
    </contour>
  </outline>
</glyph>
<glyph name="one" format="2">
  <advance width="725"/>
  <unicode hex="0031"/>
  <outline>
    <contour>
      <point x="72" y="0" type="line"/>
      <point x="72" y="1500" type="line"/>
      <point x="653" y="1500" type="line"/>
      <point x="653" y="0" type="line"/>
    </contour>
  </outline>
</glyph>
<glyph name="two" format="2">
  <advance width="1442"/>
  <unicode hex="0032"/>
  <outline>
    <contour>
      <point x="1435" y="0" type="line"/>
      <point x="24" y="0" type="line"/>
      <point x="24.0" y="352" type="line"/>
      <point x="618.0" y="797" type="line" smooth="yes"/>
      <point x="699" y="851"/>
      <point x="819" y="966"/>
      <point x="819" y="1017" type="qcurve" smooth="yes"/>
      <point x="819" y="1068" type="line" smooth="yes"/>
      <point x="819.0" y="1089.0"/>
      <point x="758.0" y="1110.0"/>
      <point x="721" y="1110" type="qcurve" smooth="yes"/>
      <point x="709" y="1110" type="line" smooth="yes"/>
      <point x="651.0" y="1110.0"/>
      <point x="598.0" y="1082"/>
      <point x="603" y="1072" type="qcurve" smooth="yes"/>
      <point x="605" y="908" type="line"/>
      <point x="58" y="910" type="line"/>
      <point x="58" y="1104" type="line" smooth="yes"/>
      <point x="54" y="1271"/>
      <point x="393.0" y="1527.0"/>
      <point x="693" y="1527" type="qcurve" smooth="yes"/>
      <point x="757" y="1527" type="line" smooth="yes"/>
      <point x="1054.0" y="1527.0"/>
      <point x="1398.0" y="1318.0"/>
      <point x="1398" y="1128.0" type="qcurve" smooth="yes"/>
      <point x="1398" y="1116.0" type="line" smooth="yes"/>
      <point x="1398.0" y="949.0"/>
      <point x="1240" y="706"/>
      <point x="1129" y="613.0" type="qcurve" smooth="yes"/>
      <point x="755" y="435.0" type="line"/>
      <point x="1435" y="435" type="line"/>
    </contour>
  </outline>
</glyph>
<glyph name="three" format="2">
  <advance width="1408"/>
  <unicode hex="0033"/>
  <outline>
    <contour>
      <point x="687" y="547.0" type="qcurve" smooth="yes"/>
      <point x="358" y="548.0" type="line"/>
      <point x="358" y="934.0" type="line"/>
      <point x="672" y="937.0" type="line" smooth="yes"/>
      <point x="753" y="937"/>
      <point x="819.0" y="956.0"/>
      <point x="819" y="1018.0" type="qcurve" smooth="yes"/>
      <point x="819" y="1055.0" type="line" smooth="yes"/>
      <point x="819.0" y="1085.0"/>
      <point x="781.0" y="1119.0"/>
      <point x="697" y="1119.0" type="qcurve"/>
      <point x="717" y="1119.0" type="line"/>
      <point x="617" y="1119.0"/>
      <point x="558.0" y="1062"/>
      <point x="556" y="1030.0" type="qcurve" smooth="yes"/>
      <point x="556" y="981.0" type="line"/>
      <point x="47" y="1005.0" type="line"/>
      <point x="52" y="1125.0" type="line" smooth="yes"/>
      <point x="58" y="1302"/>
      <point x="383" y="1527.0"/>
      <point x="673" y="1527.0" type="qcurve"/>
      <point x="691" y="1527.0" type="line"/>
      <point x="1002.0" y="1527.0"/>
      <point x="1359" y="1319"/>
      <point x="1359" y="1174.0" type="qcurve" smooth="yes"/>
      <point x="1359" y="1127.0" type="line" smooth="yes"/>
      <point x="1359.0" y="1003.0"/>
      <point x="1146" y="827.0"/>
      <point x="1060" y="814.0" type="qcurve"/>
      <point x="1170" y="787.0"/>
      <point x="1421.0" y="608.0"/>
      <point x="1421" y="443.0" type="qcurve" smooth="yes"/>
      <point x="1421" y="433.0" type="line" smooth="yes"/>
      <point x="1421.0" y="234.0"/>
      <point x="1031.0" y="-40.0"/>
      <point x="718" y="-40.0" type="qcurve"/>
      <point x="709" y="-40.0" type="line"/>
      <point x="394" y="-40.0"/>
      <point x="30" y="211.0"/>
      <point x="18" y="377.0" type="qcurve" smooth="yes"/>
      <point x="14" y="545.0" type="line"/>
      <point x="514" y="545.0" type="line"/>
      <point x="515.0" y="442" type="line" smooth="yes"/>
      <point x="522" y="380"/>
      <point x="580.0" y="304"/>
      <point x="679.0" y="304.0" type="qcurve"/>
      <point x="670.0" y="304" type="line"/>
      <point x="784.0" y="304"/>
      <point x="841.0" y="376.0"/>
      <point x="841.0" y="455.0" type="qcurve" smooth="yes"/>
      <point x="841" y="433.0" type="line" smooth="yes"/>
      <point x="841.0" y="516.0"/>
      <point x="763" y="543"/>
    </contour>
  </outline>
</glyph>
<glyph name="four" format="2">
  <advance width="1517"/>
  <unicode hex="0034"/>
  <outline>
    <contour>
      <point x="757" y="0" type="line"/>
      <point x="777" y="1504" type="line"/>
      <point x="1297" y="1501" type="line"/>
      <point x="1297" y="2" type="line"/>
    </contour>
    <contour>
      <point x="1473" y="615" type="line"/>
      <point x="1473" y="188" type="line"/>
      <point x="29" y="188" type="line"/>
      <point x="-17" y="670" type="line"/>
      <point x="746" y="1492" type="line"/>
      <point x="1108" y="1253" type="line"/>
      <point x="476" y="617" type="line"/>
    </contour>
  </outline>
</glyph>
<glyph name="five" format="2">
  <advance width="1412"/>
  <unicode hex="0035"/>
  <outline>
    <contour>
      <point x="813" y="1079" type="line" smooth="yes"/>
      <point x="1170.0" y="1079.0"/>
      <point x="1401.0" y="776.0"/>
      <point x="1401" y="530" type="qcurve" smooth="yes"/>
      <point x="1401" y="500" type="line" smooth="yes"/>
      <point x="1401.0" y="269"/>
      <point x="1007.0" y="-25.0"/>
      <point x="704" y="-25" type="qcurve" smooth="yes"/>
      <point x="675" y="-25" type="line" smooth="yes"/>
      <point x="385" y="-25"/>
      <point x="15" y="194"/>
      <point x="4" y="352" type="qcurve" smooth="yes"/>
      <point x="-1" y="528" type="line"/>
      <point x="554" y="530.0" type="line"/>
      <point x="554.0" y="375" type="line" smooth="yes"/>
      <point x="552" y="358"/>
      <point x="650.0" y="331"/>
      <point x="703.0" y="331" type="qcurve" smooth="yes"/>
      <point x="703.0" y="331" type="line" smooth="yes"/>
      <point x="760.0" y="331.0"/>
      <point x="857.0" y="340.0"/>
      <point x="857.0" y="422" type="qcurve" smooth="yes"/>
      <point x="857.0" y="618" type="line" smooth="yes"/>
      <point x="857.0" y="713.0"/>
      <point x="781.0" y="722.0"/>
      <point x="721.0" y="722" type="qcurve" smooth="yes"/>
      <point x="684.0" y="722" type="line" smooth="yes"/>
      <point x="623.0" y="722.0"/>
      <point x="532.0" y="634"/>
      <point x="541.0" y="600" type="qcurve"/>
      <point x="3" y="602" type="line"/>
      <point x="26" y="1500" type="line"/>
      <point x="1285" y="1500" type="line"/>
      <point x="1285" y="1085" type="line"/>
      <point x="407" y="1085" type="line"/>
      <point x="386" y="972" type="line"/>
      <point x="421" y="1011"/>
      <point x="646.0" y="1079.0"/>
      <point x="749" y="1079.0" type="qcurve" smooth="yes"/>
    </contour>
  </outline>
</glyph>
<glyph name="six" format="2">
  <advance width="1526"/>
  <unicode hex="0036"/>
  <outline>
    <contour>
      <point x="664.0" y="501" type="qcurve"/>
      <point x="664.0" y="407" type="line" smooth="yes"/>
      <point x="664.0" y="370"/>
      <point x="705.0" y="338.0"/>
      <point x="802.0" y="338.0" type="qcurve" smooth="yes"/>
      <point x="804.0" y="338.0" type="line" smooth="yes"/>
      <point x="872.0" y="338.0"/>
      <point x="934" y="376"/>
      <point x="934.0" y="400" type="qcurve" smooth="yes"/>
      <point x="934.0" y="558" type="line" smooth="yes"/>
      <point x="934.0" y="597"/>
      <point x="856.0" y="634"/>
      <point x="788.0" y="634" type="qcurve" smooth="yes"/>
      <point x="785.0" y="634" type="line" smooth="yes"/>
      <point x="730.0" y="634"/>
      <point x="613" y="561"/>
      <point x="663.0" y="565" type="qcurve" smooth="yes"/>
      <point x="664.0" y="475" type="line"/>
      <point x="442" y="485.0" type="line"/>
      <point x="442" y="519.0" type="line" smooth="yes"/>
      <point x="442" y="708.0"/>
      <point x="718" y="960.0"/>
      <point x="945" y="960.0" type="qcurve" smooth="yes"/>
      <point x="951" y="960.0" type="line" smooth="yes"/>
      <point x="1235" y="960.0"/>
      <point x="1522" y="695.0"/>
      <point x="1522" y="489.0" type="qcurve" smooth="yes"/>
      <point x="1522" y="454.0" type="line" smooth="yes"/>
      <point x="1522" y="255.0"/>
      <point x="1147" y="-25.0"/>
      <point x="829" y="-25.0" type="qcurve" smooth="yes"/>
      <point x="820" y="-25.0" type="line" smooth="yes"/>
      <point x="471" y="-25.0"/>
      <point x="111" y="273"/>
      <point x="107" y="545.0" type="qcurve" smooth="yes"/>
      <point x="106.0" y="710" type="line" smooth="yes"/>
      <point x="100.0" y="1059"/>
      <point x="779.0" y="1531"/>
      <point x="1198.0" y="1540" type="qcurve" smooth="yes"/>
      <point x="1274" y="1540" type="line"/>
      <point x="1274" y="1095" type="line"/>
      <point x="1223" y="1095" type="line" smooth="yes"/>
      <point x="863" y="1095"/>
      <point x="636.0" y="733"/>
    </contour>
  </outline>
</glyph>
<glyph name="seven" format="2">
  <advance width="1293"/>
  <unicode hex="0037"/>
  <outline>
    <contour>
      <point x="-38" y="1500" type="line"/>
      <point x="1339" y="1500" type="line"/>
      <point x="1340" y="1086" type="line"/>
      <point x="692" y="0" type="line"/>
      <point x="100" y="0" type="line"/>
      <point x="784" y="1085" type="line"/>
      <point x="-38" y="1085" type="line"/>
    </contour>
  </outline>
</glyph>
<glyph name="eight" format="2">
  <advance width="1619"/>
  <unicode hex="0038"/>
  <outline>
    <contour>
      <point x="798" y="-27" type="line" smooth="yes"/>
      <point x="479" y="-27"/>
      <point x="18" y="227"/>
      <point x="18" y="430" type="qcurve" smooth="yes"/>
      <point x="18" y="444" type="line" smooth="yes"/>
      <point x="18" y="641"/>
      <point x="473" y="896"/>
      <point x="790" y="896" type="qcurve" smooth="yes"/>
      <point x="802" y="896" type="line" smooth="yes"/>
      <point x="1129" y="896"/>
      <point x="1601" y="641"/>
      <point x="1601" y="444" type="qcurve" smooth="yes"/>
      <point x="1601" y="430" type="line" smooth="yes"/>
      <point x="1601" y="227"/>
      <point x="1136" y="-27"/>
      <point x="808" y="-27" type="qcurve" smooth="yes"/>
    </contour>
    <contour>
      <point x="799.0" y="344" type="line" smooth="yes"/>
      <point x="929.0" y="344"/>
      <point x="1078.0" y="413"/>
      <point x="1078.0" y="469" type="qcurve" smooth="yes"/>
      <point x="1078.0" y="477" type="line" smooth="yes"/>
      <point x="1078.0" y="535"/>
      <point x="931.0" y="606"/>
      <point x="799.0" y="606" type="qcurve" smooth="yes"/>
      <point x="794.0" y="606" type="line" smooth="yes"/>
      <point x="670.0" y="606"/>
      <point x="529.0" y="535"/>
      <point x="529.0" y="477" type="qcurve" smooth="yes"/>
      <point x="529.0" y="469" type="line" smooth="yes"/>
      <point x="529.0" y="413"/>
      <point x="668.0" y="344"/>
      <point x="794.0" y="344" type="qcurve" smooth="yes"/>
    </contour>
    <contour>
      <point x="798.0" y="675" type="line" smooth="yes"/>
      <point x="513.0" y="675"/>
      <point x="99.0" y="901"/>
      <point x="99.0" y="1080" type="qcurve" smooth="yes"/>
      <point x="99.0" y="1108" type="line" smooth="yes"/>
      <point x="99.0" y="1288"/>
      <point x="507.0" y="1523"/>
      <point x="790.0" y="1523" type="qcurve" smooth="yes"/>
      <point x="802.0" y="1523" type="line" smooth="yes"/>
      <point x="1094.0" y="1523"/>
      <point x="1519.0" y="1288"/>
      <point x="1519.0" y="1108" type="qcurve" smooth="yes"/>
      <point x="1519.0" y="1080" type="line" smooth="yes"/>
      <point x="1519.0" y="901"/>
      <point x="1099.0" y="675"/>
      <point x="809.0" y="675" type="qcurve" smooth="yes"/>
    </contour>
    <contour>
      <point x="804.0" y="936" type="line" smooth="yes"/>
      <point x="906.0" y="936"/>
      <point x="1036.0" y="987"/>
      <point x="1036.0" y="1029" type="qcurve" smooth="yes"/>
      <point x="1036.0" y="1036" type="line" smooth="yes"/>
      <point x="1036.0" y="1078"/>
      <point x="910.0" y="1131"/>
      <point x="804.0" y="1131" type="qcurve" smooth="yes"/>
      <point x="801.0" y="1131" type="line" smooth="yes"/>
      <point x="706.0" y="1131"/>
      <point x="582.0" y="1078"/>
      <point x="582.0" y="1036" type="qcurve" smooth="yes"/>
      <point x="582.0" y="1029" type="line" smooth="yes"/>
      <point x="582.0" y="987"/>
      <point x="704.0" y="936"/>
      <point x="801.0" y="936" type="qcurve" smooth="yes"/>
    </contour>
  </outline>
</glyph>
<glyph name="nine" format="2">
  <advance width="1526"/>
  <unicode hex="0039"/>
  <outline>
    <contour>
      <point x="862.0" y="966.0" type="qcurve"/>
      <point x="862.0" y="1060.0" type="line" smooth="yes"/>
      <point x="862" y="1097"/>
      <point x="819" y="1137"/>
      <point x="722.0" y="1137.0" type="qcurve" smooth="yes"/>
      <point x="720.0" y="1137.0" type="line" smooth="yes"/>
      <point x="652" y="1137"/>
      <point x="592.0" y="1082.0"/>
      <point x="592.0" y="1047.0" type="qcurve" smooth="yes"/>
      <point x="592.0" y="899.0" type="line" smooth="yes"/>
      <point x="592" y="870.0"/>
      <point x="680.0" y="841.0"/>
      <point x="738.0" y="841.0" type="qcurve" smooth="yes"/>
      <point x="741.0" y="841.0" type="line" smooth="yes"/>
      <point x="796" y="841"/>
      <point x="913.0" y="906.0"/>
      <point x="863.0" y="902.0" type="qcurve" smooth="yes"/>
      <point x="862.0" y="1006.0" type="line"/>
      <point x="1084.0" y="992.0" type="line"/>
      <point x="1084.0" y="958.0" type="line" smooth="yes"/>
      <point x="1084" y="769"/>
      <point x="808.0" y="519.0"/>
      <point x="581.0" y="519.0" type="qcurve" smooth="yes"/>
      <point x="575.0" y="519.0" type="line" smooth="yes"/>
      <point x="281.0" y="519.0"/>
      <point x="4.0" y="804.0"/>
      <point x="4.0" y="1000.0" type="qcurve" smooth="yes"/>
      <point x="4.0" y="1013.0" type="line" smooth="yes"/>
      <point x="4.0" y="1234.0"/>
      <point x="379.0" y="1524.0"/>
      <point x="697.0" y="1524.0" type="qcurve" smooth="yes"/>
      <point x="706.0" y="1524.0" type="line" smooth="yes"/>
      <point x="1055.0" y="1524.0"/>
      <point x="1415.0" y="1226.0"/>
      <point x="1419.0" y="954.0" type="qcurve" smooth="yes"/>
      <point x="1420.0" y="789.0" type="line" smooth="yes"/>
      <point x="1426.0" y="474.0"/>
      <point x="691.0" y="-35.0"/>
      <point x="328.0" y="-44.0" type="qcurve" smooth="yes"/>
      <point x="252.0" y="-44.0" type="line"/>
      <point x="252.0" y="425.0" type="line"/>
      <point x="303.0" y="425.0" type="line" smooth="yes"/>
      <point x="619.0" y="425.0"/>
      <point x="888.0" y="780.0"/>
    </contour>
  </outline>
</glyph>
<glyph name="colon" format="2">
  <advance width="1080"/>
  <unicode hex="003A"/>
  <outline>
    <contour>
      <point x="537" y="-32.0" type="line" smooth="yes"/>
      <point x="668" y="-32.0"/>
      <point x="830" y="127"/>
      <point x="830" y="243.0" type="qcurve" smooth="yes"/>
      <point x="830" y="260" type="line" smooth="yes"/>
      <point x="830" y="376"/>
      <point x="671" y="538"/>
      <point x="537" y="538" type="qcurve" smooth="yes"/>
      <point x="532" y="538" type="line" smooth="yes"/>
      <point x="408" y="538"/>
      <point x="253" y="376"/>
      <point x="253" y="260" type="qcurve" smooth="yes"/>
      <point x="253" y="243.0" type="line" smooth="yes"/>
      <point x="253" y="124"/>
      <point x="405" y="-32.0"/>
      <point x="532" y="-32.0" type="qcurve" smooth="yes"/>
    </contour>
    <contour>
      <point x="535" y="524.0" type="line" smooth="yes"/>
      <point x="666" y="524.0"/>
      <point x="829" y="683"/>
      <point x="829" y="799" type="qcurve" smooth="yes"/>
      <point x="829" y="816" type="line" smooth="yes"/>
      <point x="829" y="932"/>
      <point x="669" y="1094"/>
      <point x="535" y="1094" type="qcurve" smooth="yes"/>
      <point x="530" y="1094" type="line" smooth="yes"/>
      <point x="406" y="1094"/>
      <point x="251" y="932"/>
      <point x="251" y="816" type="qcurve" smooth="yes"/>
      <point x="251" y="799" type="line" smooth="yes"/>
      <point x="251" y="680"/>
      <point x="403" y="524.0"/>
      <point x="530" y="524.0" type="qcurve" smooth="yes"/>
    </contour>
  </outline>
</glyph>
<glyph name="semicolon" format="2">
  <advance width="1007"/>
  <unicode hex="003B"/>
  <outline>
    <contour>
      <point x="502" y="524.0" type="line" smooth="yes"/>
      <point x="633" y="524.0"/>
      <point x="796" y="683"/>
      <point x="796" y="799" type="qcurve" smooth="yes"/>
      <point x="796" y="816" type="line" smooth="yes"/>
      <point x="796" y="932"/>
      <point x="636" y="1094"/>
      <point x="502" y="1094" type="qcurve" smooth="yes"/>
      <point x="497" y="1094" type="line" smooth="yes"/>
      <point x="373" y="1094"/>
      <point x="218" y="932"/>
      <point x="218" y="816" type="qcurve" smooth="yes"/>
      <point x="218" y="799" type="line" smooth="yes"/>
      <point x="218" y="680"/>
      <point x="370" y="524.0"/>
      <point x="497" y="524.0" type="qcurve" smooth="yes"/>
    </contour>
    <contour>
      <point x="37.0" y="-127" type="line"/>
      <point x="242.0" y="330" type="line" smooth="yes"/>
      <point x="269.0" y="402"/>
      <point x="416.0" y="531.0"/>
      <point x="506.0" y="531" type="qcurve" smooth="yes"/>
      <point x="518.0" y="531.0" type="line" smooth="yes"/>
      <point x="635.0" y="531.0"/>
      <point x="780.0" y="395.0"/>
      <point x="780.0" y="316.0" type="qcurve" smooth="yes"/>
      <point x="780.0" y="299" type="line" smooth="yes"/>
      <point x="780.0" y="231.0"/>
      <point x="381.0" y="-143"/>
      <point x="230.0" y="-249.0" type="qcurve"/>
    </contour>
  </outline>
</glyph>
<glyph name="equal" format="2">
  <advance width="1920"/>
  <unicode hex="003D"/>
  <outline>
    <contour>
      <point x="1639" y="190" type="line"/>
      <point x="280" y="190" type="line"/>
      <point x="280" y="653" type="line"/>
      <point x="1639" y="653" type="line"/>
    </contour>
    <contour>
      <point x="1640" y="640" type="line"/>
      <point x="280" y="640" type="line"/>
      <point x="280" y="1105" type="line"/>
      <point x="1640" y="1105" type="line"/>
    </contour>
  </outline>
</glyph>
<glyph name="question" format="2">
  <advance width="1378"/>
  <unicode hex="003F"/>
  <outline>
    <contour>
      <point x="581.0" y="-52" type="line" smooth="yes"/>
      <point x="729" y="-52"/>
      <point x="913" y="116"/>
      <point x="913" y="240" type="qcurve" smooth="yes"/>
      <point x="913" y="259" type="line" smooth="yes"/>
      <point x="913" y="382"/>
      <point x="732" y="554"/>
      <point x="581.0" y="554" type="qcurve" smooth="yes"/>
      <point x="575" y="554" type="line" smooth="yes"/>
      <point x="435" y="554"/>
      <point x="263" y="382"/>
      <point x="263" y="259" type="qcurve" smooth="yes"/>
      <point x="263" y="240" type="line" smooth="yes"/>
      <point x="263" y="113"/>
      <point x="432" y="-52"/>
      <point x="575" y="-52" type="qcurve" smooth="yes"/>
    </contour>
    <contour>
      <point x="829" y="570" type="line"/>
      <point x="287" y="570" type="line"/>
      <point x="287" y="861" type="line"/>
      <point x="589" y="835"/>
      <point x="810.0" y="956.0"/>
      <point x="810" y="1022" type="qcurve" smooth="yes"/>
      <point x="810" y="1065" type="line" smooth="yes"/>
      <point x="810.0" y="1099"/>
      <point x="735" y="1116.0"/>
      <point x="643" y="1116" type="qcurve" smooth="yes"/>
      <point x="639" y="1116" type="line" smooth="yes"/>
      <point x="557" y="1116.0"/>
      <point x="463.0" y="1094.0"/>
      <point x="464" y="1085" type="qcurve" smooth="yes"/>
      <point x="465" y="969" type="line"/>
      <point x="-82" y="974.0" type="line"/>
      <point x="-82" y="1125.0" type="line" smooth="yes"/>
      <point x="-82" y="1304"/>
      <point x="338" y="1522.0"/>
      <point x="676" y="1522.0" type="qcurve" smooth="yes"/>
      <point x="685" y="1522.0" type="line" smooth="yes"/>
      <point x="1008.0" y="1523.0"/>
      <point x="1424.0" y="1295.0"/>
      <point x="1424" y="1036.0" type="qcurve" smooth="yes"/>
      <point x="1424" y="1009.0" type="line" smooth="yes"/>
      <point x="1424" y="769"/>
      <point x="1138" y="473"/>
      <point x="829" y="466" type="qcurve"/>
    </contour>
  </outline>
</glyph>
<glyph name="at" format="2">
  <advance width="2168"/>
  <unicode hex="0040"/>
  <outline>
    <contour>
      <point x="1302" y="691" type="qcurve" smooth="yes"/>
      <point x="1297" y="662" type="line" smooth="yes"/>
      <point x="1265" y="475"/>
      <point x="1053" y="251"/>
      <point x="893" y="251" type="qcurve" smooth="yes"/>
      <point x="887" y="251" type="line" smooth="yes"/>
      <point x="712.0" y="251"/>
      <point x="539" y="543"/>
      <point x="570" y="721" type="qcurve" smooth="yes"/>
      <point x="575" y="750" type="line" smooth="yes"/>
      <point x="606" y="932"/>
      <point x="831" y="1121"/>
      <point x="1009" y="1121" type="qcurve" smooth="yes"/>
      <point x="1016" y="1121" type="line" smooth="yes"/>
      <point x="1174" y="1121"/>
      <point x="1334" y="877"/>
    </contour>
    <contour>
      <point x="1126" y="665.0" type="line" smooth="yes"/>
      <point x="1145.0" y="760.0"/>
      <point x="1121.0" y="855.0"/>
      <point x="1081" y="855.0" type="qcurve" smooth="yes"/>
      <point x="1079" y="855.0" type="line" smooth="yes"/>
      <point x="1075" y="855.0"/>
      <point x="1035" y="799.0"/>
      <point x="1017" y="711.0" type="qcurve" smooth="yes"/>
      <point x="1013" y="697.0" type="line" smooth="yes"/>
      <point x="992" y="607.0"/>
      <point x="1000.0" y="496.0"/>
      <point x="1047" y="496.0" type="qcurve" smooth="yes"/>
      <point x="1049" y="496.0" type="line" smooth="yes"/>
      <point x="1072" y="496.0"/>
      <point x="1110" y="566.0"/>
      <point x="1124" y="650.0" type="qcurve" smooth="yes"/>
    </contour>
    <contour>
      <point x="1134" y="677" type="qcurve" smooth="yes"/>
      <point x="1233" y="1113" type="line"/>
      <point x="1622" y="1113" type="line"/>
      <point x="1545" y="688" type="line" smooth="yes"/>
      <point x="1534" y="628"/>
      <point x="1563" y="541"/>
      <point x="1590" y="541" type="qcurve" smooth="yes"/>
      <point x="1716" y="541"/>
      <point x="1863.0" y="620"/>
      <point x="1863.0" y="789" type="qcurve" smooth="yes"/>
      <point x="1863.0" y="976"/>
      <point x="1494.0" y="1282"/>
      <point x="1099.0" y="1282" type="qcurve" smooth="yes"/>
      <point x="727.0" y="1282"/>
      <point x="307.0" y="933"/>
      <point x="307.0" y="662" type="qcurve" smooth="yes"/>
      <point x="307.0" y="372"/>
      <point x="762" y="47"/>
      <point x="1083.0" y="47" type="qcurve" smooth="yes"/>
      <point x="1324.0" y="47"/>
      <point x="1639.0" y="159"/>
      <point x="1691.0" y="204" type="qcurve"/>
      <point x="1844" y="18.0" type="line"/>
      <point x="1734" y="-79.0"/>
      <point x="1350" y="-182.0"/>
      <point x="1072" y="-182.0" type="qcurve" smooth="yes"/>
      <point x="650" y="-182.0"/>
      <point x="-10" y="282.0"/>
      <point x="-10" y="675.0" type="qcurve" smooth="yes"/>
      <point x="-10" y="1057.0"/>
      <point x="624" y="1529.0"/>
      <point x="1096" y="1529.0" type="qcurve" smooth="yes"/>
      <point x="1599" y="1529.0"/>
      <point x="2163" y="1130"/>
      <point x="2163" y="830.0" type="qcurve" smooth="yes"/>
      <point x="2163.0" y="578"/>
      <point x="1726" y="269"/>
      <point x="1408" y="269" type="qcurve" smooth="yes"/>
      <point x="1231" y="269"/>
      <point x="1112" y="497"/>
    </contour>
  </outline>
</glyph>
<glyph name="A" format="2">
  <advance width="1741"/>
  <unicode hex="0041"/>
  <outline>
    <contour>
      <point x="1471" y="99" type="line"/>
      <point x="301" y="99" type="line"/>
      <point x="301" y="505" type="line"/>
      <point x="1471" y="505" type="line"/>
    </contour>
    <contour>
      <point x="1111" y="1500" type="line"/>
      <point x="1791" y="0" type="line"/>
      <point x="1203" y="0.0" type="line"/>
      <point x="894" y="572" type="line"/>
      <point x="856" y="572" type="line"/>
      <point x="582" y="0.0" type="line"/>
      <point x="-50" y="0" type="line"/>
      <point x="640" y="1500" type="line"/>
    </contour>
  </outline>
</glyph>
<glyph name="B" format="2">
  <advance width="1725"/>
  <unicode hex="0042"/>
  <outline>
    <contour>
      <point x="210" y="0" type="line"/>
      <point x="210" y="1500" type="line"/>
      <point x="821" y="1500" type="line"/>
      <point x="821" y="0" type="line"/>
    </contour>
    <contour>
      <point x="1298" y="811" type="line"/>
      <point x="1408" y="811"/>
      <point x="1682" y="628"/>
      <point x="1682" y="442" type="qcurve" smooth="yes"/>
      <point x="1682" y="415" type="line" smooth="yes"/>
      <point x="1682" y="235"/>
      <point x="1406.0" y="0.0"/>
      <point x="1203" y="0" type="qcurve" smooth="yes"/>
      <point x="511" y="0" type="line"/>
      <point x="511" y="373.0" type="line"/>
      <point x="894" y="373.0" type="line" smooth="yes"/>
      <point x="984.0" y="373.0"/>
      <point x="1104" y="432"/>
      <point x="1104" y="485.0" type="qcurve" smooth="yes"/>
      <point x="1104" y="493.0" type="line" smooth="yes"/>
      <point x="1104" y="544"/>
      <point x="975.0" y="599.0"/>
      <point x="884" y="599.0" type="qcurve" smooth="yes"/>
      <point x="511" y="599.0" type="line"/>
      <point x="511" y="950.0" type="line"/>
      <point x="883" y="950.0" type="line" smooth="yes"/>
      <point x="976.0" y="950.0"/>
      <point x="1046" y="988"/>
      <point x="1046" y="1029.0" type="qcurve" smooth="yes"/>
      <point x="1046" y="1035.0" type="line" smooth="yes"/>
      <point x="1046" y="1070"/>
      <point x="969.0" y="1115.0"/>
      <point x="890" y="1115.0" type="qcurve" smooth="yes"/>
      <point x="511" y="1115.0" type="line"/>
      <point x="511" y="1500" type="line"/>
      <point x="1178" y="1500" type="line" smooth="yes"/>
      <point x="1365.0" y="1500.0"/>
      <point x="1607" y="1289"/>
      <point x="1607" y="1121" type="qcurve" smooth="yes"/>
      <point x="1607" y="1105" type="line" smooth="yes"/>
      <point x="1607" y="937"/>
      <point x="1417" y="775"/>
      <point x="1293" y="775" type="qcurve"/>
    </contour>
  </outline>
</glyph>
<glyph name="C" format="2">
  <advance width="1943"/>
  <unicode hex="0043"/>
  <outline>
    <contour>
      <point x="1041.0" y="399" type="line" smooth="yes"/>
      <point x="1159.0" y="399.0"/>
      <point x="1289.0" y="470"/>
      <point x="1297" y="594" type="qcurve" smooth="yes"/>
      <point x="1298" y="662.0" type="line"/>
      <point x="1916.0" y="662.0" type="line"/>
      <point x="1912.0" y="530.0" type="line" smooth="yes"/>
      <point x="1900" y="265"/>
      <point x="1452" y="-35.0"/>
      <point x="1061" y="-35.0" type="qcurve" smooth="yes"/>
      <point x="1051" y="-35.0" type="line" smooth="yes"/>
      <point x="683" y="-35.0"/>
      <point x="102" y="360.0"/>
      <point x="102" y="741.0" type="qcurve" smooth="yes"/>
      <point x="102" y="751.0" type="line" smooth="yes"/>
      <point x="102" y="1126.0"/>
      <point x="656" y="1530.0"/>
      <point x="1032" y="1530.0" type="qcurve" smooth="yes"/>
      <point x="1044" y="1530.0" type="line" smooth="yes"/>
      <point x="1450" y="1530.0"/>
      <point x="1893" y="1235"/>
      <point x="1912" y="971.0" type="qcurve" smooth="yes"/>
      <point x="1921" y="827.0" type="line"/>
      <point x="1293" y="827.0" type="line"/>
      <point x="1293.0" y="919" type="line" smooth="yes"/>
      <point x="1286" y="1018"/>
      <point x="1132" y="1085"/>
      <point x="1035.0" y="1085" type="qcurve" smooth="yes"/>
      <point x="1036.0" y="1085" type="line" smooth="yes"/>
      <point x="953.0" y="1085.0"/>
      <point x="784.0" y="997"/>
      <point x="784.0" y="857" type="qcurve" smooth="yes"/>
      <point x="784.0" y="627" type="line" smooth="yes"/>
      <point x="784.0" y="476.0"/>
      <point x="958.0" y="399"/>
      <point x="1042.0" y="399" type="qcurve" smooth="yes"/>
    </contour>
  </outline>
</glyph>
<glyph name="D" format="2">
  <advance width="1979"/>
  <unicode hex="0044"/>
  <outline>
    <contour>
      <point x="168" y="0" type="line"/>
      <point x="168" y="1500" type="line"/>
      <point x="789" y="1500" type="line"/>
      <point x="789" y="0" type="line"/>
    </contour>
    <contour>
      <point x="1062.0" y="415" type="line" smooth="yes"/>
      <point x="1152" y="415"/>
      <point x="1215.0" y="582"/>
      <point x="1215.0" y="747" type="qcurve" smooth="yes"/>
      <point x="1215.0" y="739" type="line" smooth="yes"/>
      <point x="1215.0" y="904"/>
      <point x="1150.0" y="1072"/>
      <point x="1060.0" y="1078.0" type="qcurve" smooth="yes"/>
      <point x="565.0" y="1078" type="line"/>
      <point x="565.0" y="1500.0" type="line"/>
      <point x="1135.0" y="1500.0" type="line" smooth="yes"/>
      <point x="1450.0" y="1500.0"/>
      <point x="1877.0" y="1095"/>
      <point x="1877.0" y="752.0" type="qcurve" smooth="yes"/>
      <point x="1877.0" y="741.0" type="line" smooth="yes"/>
      <point x="1877.0" y="401"/>
      <point x="1445.0" y="0.0"/>
      <point x="1131.0" y="0.0" type="qcurve" smooth="yes"/>
      <point x="565.0" y="0.0" type="line"/>
      <point x="565.0" y="415" type="line"/>
    </contour>
  </outline>
</glyph>
<glyph name="E" format="2">
  <advance width="1414"/>
  <unicode hex="0045"/>
  <outline>
    <contour>
      <point x="168" y="0" type="line"/>
      <point x="168" y="1500" type="line"/>
      <point x="804" y="1500" type="line"/>
      <point x="804" y="0" type="line"/>
    </contour>
    <contour>
      <point x="1294" y="562" type="line"/>
      <point x="464" y="562" type="line"/>
      <point x="464" y="1012" type="line"/>
      <point x="1294" y="1012" type="line"/>
    </contour>
    <contour>
      <point x="1454" y="1050" type="line"/>
      <point x="464" y="1050" type="line"/>
      <point x="464" y="1500" type="line"/>
      <point x="1454" y="1500" type="line"/>
    </contour>
    <contour>
      <point x="1454" y="0" type="line"/>
      <point x="464" y="0" type="line"/>
      <point x="464" y="450" type="line"/>
      <point x="1454" y="450" type="line"/>
    </contour>
  </outline>
</glyph>
<glyph name="F" format="2">
  <advance width="1357"/>
  <unicode hex="0046"/>
  <outline>
    <contour>
      <point x="168" y="0" type="line"/>
      <point x="168" y="1500" type="line"/>
      <point x="803" y="1500" type="line"/>
      <point x="803" y="0" type="line"/>
    </contour>
    <contour>
      <point x="1149" y="516" type="line"/>
      <point x="508" y="516" type="line"/>
      <point x="508" y="966" type="line"/>
      <point x="1149" y="966" type="line"/>
    </contour>
    <contour>
      <point x="1309" y="1050" type="line"/>
      <point x="508" y="1050" type="line"/>
      <point x="508" y="1500" type="line"/>
      <point x="1309" y="1500" type="line"/>
    </contour>
  </outline>
</glyph>
<glyph name="G" format="2">
  <advance width="2025"/>
  <unicode hex="0047"/>
  <outline>
    <contour>
      <point x="1077.0" y="336.0" type="line" smooth="yes"/>
      <point x="1225.0" y="336.0"/>
      <point x="1388.0" y="420.0"/>
      <point x="1393.0" y="488" type="qcurve" smooth="yes"/>
      <point x="1392.0" y="443.0" type="line"/>
      <point x="1084" y="442.0" type="line"/>
      <point x="1084" y="851.0" type="line"/>
      <point x="1995" y="852.0" type="line"/>
      <point x="1992.0" y="628.0" type="line" smooth="yes"/>
      <point x="1986" y="298"/>
      <point x="1506" y="-31.0"/>
      <point x="1090" y="-31.0" type="qcurve" smooth="yes"/>
      <point x="1077" y="-31.0" type="line" smooth="yes"/>
      <point x="615" y="-31.0"/>
      <point x="102" y="379.0"/>
      <point x="102" y="741.0" type="qcurve" smooth="yes"/>
      <point x="102" y="754.0" type="line" smooth="yes"/>
      <point x="102" y="1126.0"/>
      <point x="647.0" y="1530.0"/>
      <point x="1068" y="1530.0" type="qcurve" smooth="yes"/>
      <point x="1082" y="1530.0" type="line" smooth="yes"/>
      <point x="1478.0" y="1530.0"/>
      <point x="1922" y="1251.0"/>
      <point x="1944" y="1018.0" type="qcurve" smooth="yes"/>
      <point x="1949" y="935.0" type="line"/>
      <point x="1385" y="935.0" type="line"/>
      <point x="1383.0" y="975.0" type="line" smooth="yes"/>
      <point x="1383" y="1047"/>
      <point x="1226.0" y="1130.0"/>
      <point x="1103.0" y="1130.0" type="qcurve" smooth="yes"/>
      <point x="1098.0" y="1130.0" type="line" smooth="yes"/>
      <point x="943.0" y="1130.0"/>
      <point x="765.0" y="988.0"/>
      <point x="765.0" y="861.0" type="qcurve" smooth="yes"/>
      <point x="765.0" y="644.0" type="line" smooth="yes"/>
      <point x="765.0" y="486.0"/>
      <point x="914.0" y="336"/>
      <point x="1075.0" y="336.0" type="qcurve" smooth="yes"/>
    </contour>
  </outline>
</glyph>
<glyph name="H" format="2">
  <advance width="2150"/>
  <unicode hex="0048"/>
  <outline>
    <contour>
      <point x="180" y="0" type="line"/>
      <point x="180" y="1500" type="line"/>
      <point x="815" y="1500" type="line"/>
      <point x="815" y="0" type="line"/>
    </contour>
    <contour>
      <point x="1335" y="0" type="line"/>
      <point x="1335" y="1500" type="line"/>
      <point x="1970" y="1500" type="line"/>
      <point x="1970" y="0" type="line"/>
    </contour>
    <contour>
      <point x="1716" y="559" type="line"/>
      <point x="536" y="559" type="line"/>
      <point x="536" y="1017" type="line"/>
      <point x="1716" y="1017" type="line"/>
    </contour>
  </outline>
</glyph>
<glyph name="I" format="2">
  <advance width="842"/>
  <unicode hex="0049"/>
  <outline>
    <contour>
      <point x="109" y="0" type="line"/>
      <point x="109" y="1500" type="line"/>
      <point x="733" y="1500" type="line"/>
      <point x="733" y="0" type="line"/>
    </contour>
    <contour>
      <point x="452" y="0" type="line"/>
      <point x="372" y="0" type="line"/>
      <point x="372" y="435" type="line"/>
      <point x="452" y="435" type="line"/>
    </contour>
    <contour>
      <point x="452" y="1065" type="line"/>
      <point x="372" y="1065" type="line"/>
      <point x="372" y="1500" type="line"/>
      <point x="452" y="1500" type="line"/>
    </contour>
  </outline>
</glyph>
<glyph name="J" format="2">
  <advance width="1455"/>
  <unicode hex="004A"/>
  <outline>
    <contour>
      <point x="1327" y="500" type="line" smooth="yes"/>
      <point x="1327.0" y="184.0"/>
      <point x="921" y="-32"/>
      <point x="643" y="-32" type="qcurve" smooth="yes"/>
      <point x="621" y="-32" type="line" smooth="yes"/>
      <point x="303.0" y="-32"/>
      <point x="-12" y="186.0"/>
      <point x="-12" y="369" type="qcurve" smooth="yes"/>
      <point x="-12" y="574" type="line"/>
      <point x="507" y="574.0" type="line"/>
      <point x="507.0" y="421" type="line" smooth="yes"/>
      <point x="507" y="414"/>
      <point x="562.0" y="369.0"/>
      <point x="583.0" y="369" type="qcurve" smooth="yes"/>
      <point x="585.0" y="369" type="line" smooth="yes"/>
      <point x="637.0" y="369.0"/>
      <point x="706.0" y="366.0"/>
      <point x="706.0" y="405" type="qcurve" smooth="yes"/>
      <point x="706" y="1500.0" type="line"/>
      <point x="1327" y="1500" type="line"/>
    </contour>
  </outline>
</glyph>
<glyph name="K" format="2">
  <advance width="1521"/>
  <unicode hex="004B"/>
  <outline>
    <contour>
      <point x="168" y="0" type="line"/>
      <point x="168" y="1500" type="line"/>
      <point x="803" y="1500" type="line"/>
      <point x="796" y="1094" type="line"/>
      <point x="849" y="1253" type="line"/>
      <point x="1016" y="1500" type="line"/>
      <point x="1696" y="1500" type="line"/>
      <point x="994" y="626" type="line"/>
      <point x="927" y="652" type="line"/>
      <point x="796" y="466" type="line"/>
      <point x="803" y="0" type="line"/>
    </contour>
    <contour>
      <point x="399" y="594" type="line"/>
      <point x="827" y="990" type="line"/>
      <point x="1774" y="0" type="line"/>
      <point x="989" y="0" type="line"/>
    </contour>
  </outline>
</glyph>
<glyph name="L" format="2">
  <advance width="1388"/>
  <unicode hex="004C"/>
  <outline>
    <contour>
      <point x="167" y="0" type="line"/>
      <point x="167" y="1500" type="line"/>
      <point x="807" y="1500" type="line"/>
      <point x="807" y="0" type="line"/>
    </contour>
    <contour>
      <point x="1354" y="0" type="line"/>
      <point x="410" y="0" type="line"/>
      <point x="410" y="450" type="line"/>
      <point x="1354" y="450" type="line"/>
    </contour>
  </outline>
</glyph>
<glyph name="M" format="2">
  <advance width="2588"/>
  <unicode hex="004D"/>
  <outline>
    <contour>
      <point x="168" y="0" type="line"/>
      <point x="168" y="1500" type="line"/>
      <point x="989" y="1500" type="line"/>
      <point x="1316" y="754" type="line"/>
      <point x="1329" y="754" type="line"/>
      <point x="1642" y="1500" type="line"/>
      <point x="2430" y="1500" type="line"/>
      <point x="2430" y="0" type="line"/>
      <point x="1904" y="0" type="line"/>
      <point x="1904" y="852" type="line"/>
      <point x="1573" y="0" type="line"/>
      <point x="1035" y="0" type="line"/>
      <point x="704" y="853" type="line"/>
      <point x="704" y="0" type="line"/>
    </contour>
  </outline>
</glyph>
<glyph name="N" format="2">
  <advance width="2133"/>
  <unicode hex="004E"/>
  <outline>
    <contour>
      <point x="168" y="0" type="line"/>
      <point x="168" y="1500" type="line"/>
      <point x="714" y="1498" type="line"/>
      <point x="1419" y="945" type="line"/>
      <point x="1419" y="1500" type="line"/>
      <point x="1965" y="1500" type="line"/>
      <point x="1965" y="0" type="line"/>
      <point x="1394" y="0" type="line"/>
      <point x="1379" y="67" type="line"/>
      <point x="694" y="598" type="line"/>
      <point x="694" y="0" type="line"/>
    </contour>
  </outline>
</glyph>
<glyph name="O" format="2">
  <advance width="2162"/>
  <unicode hex="004F"/>
  <outline>
    <contour>
      <point x="1064" y="-32.0" type="line" smooth="yes"/>
      <point x="610" y="-32.0"/>
      <point x="102" y="371.0"/>
      <point x="102" y="734.0" type="qcurve" smooth="yes"/>
      <point x="102" y="752.0" type="line" smooth="yes"/>
      <point x="102" y="1110.0"/>
      <point x="623.0" y="1528.0"/>
      <point x="1071" y="1528.0" type="qcurve" smooth="yes"/>
      <point x="1082" y="1528.0" type="line" smooth="yes"/>
      <point x="1518" y="1528.0"/>
      <point x="2060.0" y="1127.0"/>
      <point x="2060" y="753.0" type="qcurve" smooth="yes"/>
      <point x="2060" y="738.0" type="line" smooth="yes"/>
      <point x="2060.0" y="368.0"/>
      <point x="1521" y="-32.0"/>
      <point x="1075" y="-32.0" type="qcurve" smooth="yes"/>
    </contour>
    <contour>
      <point x="1081.0" y="362.0" type="line" smooth="yes"/>
      <point x="1202.0" y="362.0"/>
      <point x="1383.0" y="433.0"/>
      <point x="1383.0" y="662" type="qcurve" smooth="yes"/>
      <point x="1383.0" y="811" type="line" smooth="yes"/>
      <point x="1383.0" y="1038.0"/>
      <point x="1202.0" y="1114"/>
      <point x="1081.0" y="1114" type="qcurve" smooth="yes"/>
      <point x="1078.0" y="1114" type="line" smooth="yes"/>
      <point x="940.0" y="1114"/>
      <point x="779.0" y="1034.0"/>
      <point x="779.0" y="808" type="qcurve" smooth="yes"/>
      <point x="779.0" y="658" type="line" smooth="yes"/>
      <point x="779.0" y="434.0"/>
      <point x="918.0" y="362.0"/>
      <point x="1078.0" y="362.0" type="qcurve" smooth="yes"/>
    </contour>
  </outline>
</glyph>
<glyph name="P" format="2">
  <advance width="1551"/>
  <unicode hex="0050"/>
  <outline>
    <contour>
      <point x="167" y="0" type="line"/>
      <point x="167" y="1500" type="line"/>
      <point x="805" y="1500" type="line"/>
      <point x="805" y="0" type="line"/>
    </contour>
    <contour>
      <point x="1056" y="315.0" type="qcurve" smooth="yes"/>
      <point x="668.0" y="315" type="line"/>
      <point x="668.0" y="722.0" type="line"/>
      <point x="807" y="722.0" type="line" smooth="yes"/>
      <point x="860.0" y="722.0"/>
      <point x="938.0" y="769.0"/>
      <point x="938.0" y="900.0" type="qcurve" smooth="yes"/>
      <point x="938.0" y="909.0" type="line" smooth="yes"/>
      <point x="938.0" y="1021.0"/>
      <point x="855.0" y="1085.0"/>
      <point x="818" y="1085.0" type="qcurve" smooth="yes"/>
      <point x="668.0" y="1085.0" type="line"/>
      <point x="668" y="1500" type="line"/>
      <point x="1030" y="1500.0" type="line" smooth="yes"/>
      <point x="1261.0" y="1500.0"/>
      <point x="1572" y="1211"/>
      <point x="1572" y="940.0" type="qcurve" smooth="yes"/>
      <point x="1572" y="930.0" type="line" smooth="yes"/>
      <point x="1572" y="605"/>
      <point x="1255.0" y="313.0"/>
    </contour>
  </outline>
</glyph>
<glyph name="Q" format="2">
  <advance width="2162"/>
  <unicode hex="0051"/>
  <outline>
    <contour>
      <point x="1064" y="-2.0" type="line" smooth="yes"/>
      <point x="610" y="-2"/>
      <point x="102" y="371.0"/>
      <point x="102" y="754.0" type="qcurve" smooth="yes"/>
      <point x="102" y="752.0" type="line" smooth="yes"/>
      <point x="102" y="1120.0"/>
      <point x="623.0" y="1528.0"/>
      <point x="1071" y="1528.0" type="qcurve" smooth="yes"/>
      <point x="1082" y="1528.0" type="line" smooth="yes"/>
      <point x="1518" y="1528.0"/>
      <point x="2060.0" y="1127.0"/>
      <point x="2060" y="753.0" type="qcurve" smooth="yes"/>
      <point x="2060" y="758.0" type="line" smooth="yes"/>
      <point x="2060.0" y="398.0"/>
      <point x="1491.0" y="-2.0"/>
      <point x="1075" y="-2.0" type="qcurve" smooth="yes"/>
    </contour>
    <contour>
      <point x="1081.0" y="372.0" type="line" smooth="yes"/>
      <point x="1202" y="372"/>
      <point x="1383.0" y="443.0"/>
      <point x="1383.0" y="652" type="qcurve" smooth="yes"/>
      <point x="1383.0" y="811" type="line" smooth="yes"/>
      <point x="1383.0" y="1018"/>
      <point x="1202.0" y="1114"/>
      <point x="1081.0" y="1114" type="qcurve" smooth="yes"/>
      <point x="1078.0" y="1114" type="line" smooth="yes"/>
      <point x="940.0" y="1114"/>
      <point x="779.0" y="1014"/>
      <point x="779.0" y="808" type="qcurve" smooth="yes"/>
      <point x="779.0" y="648" type="line" smooth="yes"/>
      <point x="779.0" y="444.0"/>
      <point x="918" y="372"/>
      <point x="1078.0" y="372.0" type="qcurve" smooth="yes"/>
    </contour>
    <contour>
      <point x="1123" y="279" type="line"/>
      <point x="2186" y="263" type="line"/>
      <point x="2186" y="-162" type="line"/>
      <point x="1124" y="-21" type="line"/>
    </contour>
  </outline>
</glyph>
<glyph name="R" format="2">
  <advance width="1619"/>
  <unicode hex="0052"/>
  <outline>
    <contour>
      <point x="168" y="0" type="line"/>
      <point x="168" y="1500" type="line"/>
      <point x="788" y="1500" type="line"/>
      <point x="788" y="0" type="line"/>
    </contour>
    <contour>
      <point x="1138" y="532" type="qcurve" smooth="yes"/>
      <point x="514" y="532" type="line"/>
      <point x="514" y="925" type="line"/>
      <point x="879.0" y="925" type="line" smooth="yes"/>
      <point x="976.0" y="925.0"/>
      <point x="1086.0" y="960"/>
      <point x="1086.0" y="1014" type="qcurve" smooth="yes"/>
      <point x="1086.0" y="1019" type="line" smooth="yes"/>
      <point x="1086.0" y="1070"/>
      <point x="973.0" y="1092.0"/>
      <point x="887.0" y="1092" type="qcurve" smooth="yes"/>
      <point x="514" y="1092" type="line"/>
      <point x="514" y="1500" type="line"/>
      <point x="1135" y="1500" type="line" smooth="yes"/>
      <point x="1376.0" y="1500.0"/>
      <point x="1702.0" y="1278.0"/>
      <point x="1702" y="1040" type="qcurve" smooth="yes"/>
      <point x="1702" y="1022" type="line" smooth="yes"/>
      <point x="1702.0" y="756.0"/>
      <point x="1375.0" y="532.0"/>
    </contour>
    <contour>
      <point x="1232" y="846" type="line"/>
      <point x="1776" y="0" type="line"/>
      <point x="1109" y="0" type="line"/>
      <point x="751" y="624" type="line"/>
    </contour>
  </outline>
</glyph>
<glyph name="S" format="2">
  <advance width="1659"/>
  <unicode hex="0053"/>
  <outline>
    <contour>
      <point x="1065.0" y="398" type="line" smooth="yes"/>
      <point x="1065" y="392"/>
      <point x="992" y="426"/>
      <point x="663" y="485" type="qcurve" smooth="yes"/>
      <point x="254" y="565"/>
      <point x="31" y="841.0"/>
      <point x="31" y="1028.0" type="qcurve" smooth="yes"/>
      <point x="31" y="1053.0" type="line" smooth="yes"/>
      <point x="31" y="1241.0"/>
      <point x="422.0" y="1530.0"/>
      <point x="804" y="1530.0" type="qcurve" smooth="yes"/>
      <point x="816" y="1530.0" type="line" smooth="yes"/>
      <point x="1216.0" y="1530.0"/>
      <point x="1597.0" y="1313"/>
      <point x="1580" y="1119.0" type="qcurve" smooth="yes"/>
      <point x="1580" y="1056.0" type="line"/>
      <point x="1012" y="1056.0" type="line"/>
      <point x="1012.0" y="1165" type="line" smooth="yes"/>
      <point x="1012" y="1129"/>
      <point x="956.0" y="1103"/>
      <point x="811.0" y="1103.0" type="qcurve" smooth="yes"/>
      <point x="812.0" y="1103" type="line" smooth="yes"/>
      <point x="692.0" y="1103"/>
      <point x="618.0" y="1057.0"/>
      <point x="618.0" y="1091" type="qcurve" smooth="yes"/>
      <point x="618.0" y="1058" type="line" smooth="yes"/>
      <point x="618.0" y="1093"/>
      <point x="682" y="1064"/>
      <point x="998" y="1035" type="qcurve" smooth="yes"/>
      <point x="1364.0" y="994"/>
      <point x="1647.0" y="716.0"/>
      <point x="1647" y="488.0" type="qcurve" smooth="yes"/>
      <point x="1647" y="464.0" type="line" smooth="yes"/>
      <point x="1647.0" y="258"/>
      <point x="1242.0" y="-33.0"/>
      <point x="837" y="-33.0" type="qcurve" smooth="yes"/>
      <point x="832" y="-33.0" type="line" smooth="yes"/>
      <point x="405" y="-33.0"/>
      <point x="5" y="221"/>
      <point x="10" y="396.0" type="qcurve" smooth="yes"/>
      <point x="10" y="496.0" type="line"/>
      <point x="555.0" y="494.0" type="line"/>
      <point x="555.0" y="431" type="line" smooth="yes"/>
      <point x="555.0" y="399.0"/>
      <point x="666.0" y="358"/>
      <point x="823.0" y="358" type="qcurve" smooth="yes"/>
      <point x="827.0" y="358" type="line" smooth="yes"/>
      <point x="999.0" y="358.0"/>
      <point x="1065.0" y="399.0"/>
      <point x="1065.0" y="393" type="qcurve" smooth="yes"/>
    </contour>
  </outline>
</glyph>
<glyph name="T" format="2">
  <advance width="1544"/>
  <unicode hex="0054"/>
  <outline>
    <contour>
      <point x="466" y="0" type="line"/>
      <point x="466" y="1430" type="line"/>
      <point x="1083" y="1430" type="line"/>
      <point x="1083" y="0" type="line"/>
    </contour>
    <contour>
      <point x="1542" y="1050" type="line"/>
      <point x="2" y="1050" type="line"/>
      <point x="2" y="1500" type="line"/>
      <point x="1542" y="1500" type="line"/>
    </contour>
  </outline>
</glyph>
<glyph name="U" format="2">
  <advance width="1887"/>
  <unicode hex="0055"/>
  <outline>
    <contour>
      <point x="93" y="1500.0" type="line"/>
      <point x="703.0" y="1500" type="line"/>
      <point x="703.0" y="552" type="line" smooth="yes"/>
      <point x="703.0" y="515.0"/>
      <point x="833.0" y="446"/>
      <point x="947.0" y="446" type="qcurve" smooth="yes"/>
      <point x="949.0" y="446" type="line" smooth="yes"/>
      <point x="1068.0" y="446.0"/>
      <point x="1199.0" y="531.0"/>
      <point x="1199.0" y="552" type="qcurve" smooth="yes"/>
      <point x="1199.0" y="1500" type="line"/>
      <point x="1801" y="1500.0" type="line"/>
      <point x="1793" y="663.0" type="line" smooth="yes"/>
      <point x="1791.0" y="316.0"/>
      <point x="1370.0" y="-33.0"/>
      <point x="955" y="-33.0" type="qcurve" smooth="yes"/>
      <point x="943" y="-33.0" type="line" smooth="yes"/>
      <point x="554.0" y="-33.0"/>
      <point x="93" y="345.0"/>
      <point x="93" y="693.0" type="qcurve" smooth="yes"/>
    </contour>
  </outline>
</glyph>
<glyph name="V" format="2">
  <advance width="1661"/>
  <unicode hex="0056"/>
  <outline>
    <contour>
      <point x="526" y="0" type="line"/>
      <point x="-70" y="1500" type="line"/>
      <point x="539.0" y="1500" type="line"/>
      <point x="852.0" y="866" type="line"/>
      <point x="1166.0" y="1500" type="line"/>
      <point x="1751" y="1500" type="line"/>
      <point x="1106" y="0" type="line"/>
    </contour>
  </outline>
</glyph>
<glyph name="W" format="2">
  <advance width="2330"/>
  <unicode hex="0057"/>
  <outline>
    <contour>
      <point x="455" y="0" type="line"/>
      <point x="-60" y="1500" type="line"/>
      <point x="559" y="1500" type="line"/>
      <point x="792" y="1157" type="line"/>
      <point x="972" y="1500" type="line"/>
      <point x="1432" y="1500" type="line"/>
      <point x="1635" y="1160" type="line"/>
      <point x="1834" y="1500" type="line"/>
      <point x="2390" y="1500" type="line"/>
      <point x="1875" y="0" type="line"/>
      <point x="1454.0" y="0.0" type="line"/>
      <point x="1179.0" y="423" type="line"/>
      <point x="1155.0" y="423" type="line"/>
      <point x="876.0" y="0.0" type="line"/>
    </contour>
  </outline>
</glyph>
<glyph name="X" format="2">
  <advance width="1584"/>
  <unicode hex="0058"/>
  <outline>
    <contour>
      <point x="-88" y="0" type="line"/>
      <point x="551" y="880" type="line"/>
      <point x="641" y="922" type="line"/>
      <point x="1025" y="1500" type="line"/>
      <point x="1635" y="1500" type="line"/>
      <point x="1061" y="674" type="line"/>
      <point x="969" y="629" type="line"/>
      <point x="522" y="0" type="line"/>
    </contour>
    <contour>
      <point x="970" y="0" type="line"/>
      <point x="593" y="558" type="line"/>
      <point x="560" y="592" type="line"/>
      <point x="-67" y="1500" type="line"/>
      <point x="644" y="1500" type="line"/>
      <point x="976" y="973" type="line"/>
      <point x="1013" y="944" type="line"/>
      <point x="1672" y="0" type="line"/>
    </contour>
  </outline>
</glyph>
<glyph name="Y" format="2">
  <advance width="1550"/>
  <unicode hex="0059"/>
  <outline>
    <contour>
      <point x="519" y="400" type="line"/>
      <point x="-210" y="1500" type="line"/>
      <point x="494" y="1500" type="line"/>
      <point x="773" y="1123" type="line"/>
      <point x="1077" y="1500" type="line"/>
      <point x="1760" y="1500" type="line"/>
      <point x="1032" y="400" type="line"/>
    </contour>
    <contour>
      <point x="466" y="0" type="line"/>
      <point x="466" y="570" type="line"/>
      <point x="1089" y="570" type="line"/>
      <point x="1089" y="0" type="line"/>
    </contour>
  </outline>
</glyph>
<glyph name="Z" format="2">
  <advance width="1502"/>
  <unicode hex="005A"/>
  <outline>
    <contour>
      <point x="1484" y="0" type="line"/>
      <point x="14" y="0" type="line"/>
      <point x="9" y="455" type="line"/>
      <point x="754" y="1050" type="line"/>
      <point x="44" y="1050" type="line"/>
      <point x="44" y="1500" type="line"/>
      <point x="1434" y="1500" type="line"/>
      <point x="1434" y="1055" type="line"/>
      <point x="682" y="450" type="line"/>
      <point x="1484" y="450" type="line"/>
    </contour>
  </outline>
</glyph>
<glyph name="bracketleft" format="2">
  <advance width="1040"/>
  <unicode hex="005B"/>
  <outline>
    <contour>
      <point x="128" y="-280" type="line"/>
      <point x="128" y="1500" type="line"/>
      <point x="679" y="1500" type="line"/>
      <point x="679" y="-280" type="line"/>
    </contour>
    <contour>
      <point x="1146" y="-280" type="line"/>
      <point x="459" y="-280" type="line"/>
      <point x="459" y="125" type="line"/>
      <point x="1146" y="125" type="line"/>
    </contour>
    <contour>
      <point x="1146" y="1095" type="line"/>
      <point x="454" y="1095" type="line"/>
      <point x="454" y="1500" type="line"/>
      <point x="1146" y="1500" type="line"/>
    </contour>
  </outline>
</glyph>
<glyph name="backslash" format="2">
  <advance width="1060"/>
  <unicode hex="005C"/>
  <outline>
    <contour>
      <point x="1160" y="0" type="line"/>
      <point x="620" y="0" type="line"/>
      <point x="-100" y="1500" type="line"/>
      <point x="440" y="1500" type="line"/>
    </contour>
  </outline>
</glyph>
<glyph name="bracketright" format="2">
  <advance width="1040"/>
  <unicode hex="005D"/>
  <outline>
    <contour>
      <point x="912" y="-280" type="line"/>
      <point x="361" y="-280" type="line"/>
      <point x="361" y="1500" type="line"/>
      <point x="912" y="1500" type="line"/>
    </contour>
    <contour>
      <point x="-106" y="-280" type="line"/>
      <point x="-106" y="125" type="line"/>
      <point x="581" y="125" type="line"/>
      <point x="581" y="-280" type="line"/>
    </contour>
    <contour>
      <point x="-106" y="1095" type="line"/>
      <point x="-106" y="1500" type="line"/>
      <point x="586" y="1500" type="line"/>
      <point x="586" y="1095" type="line"/>
    </contour>
  </outline>
</glyph>
<glyph name="a" format="2">
  <advance width="1576"/>
  <unicode hex="0061"/>
  <outline>
    <contour>
      <point x="123" y="966.0" type="line"/>
      <point x="206" y="1000.0"/>
      <point x="564" y="1081.0"/>
      <point x="795" y="1081.0" type="qcurve" smooth="yes"/>
      <point x="1148" y="1081.0"/>
      <point x="1451.0" y="866.0"/>
      <point x="1456.0" y="642.0" type="qcurve" smooth="yes"/>
      <point x="1460.0" y="1.0" type="line"/>
      <point x="921" y="1.0" type="line"/>
      <point x="911.0" y="603" type="line" smooth="yes"/>
      <point x="910.0" y="640.0"/>
      <point x="817.0" y="744"/>
      <point x="662.0" y="744.0" type="qcurve" smooth="yes"/>
      <point x="522.0" y="744.0"/>
      <point x="245.0" y="700"/>
      <point x="178.0" y="676" type="qcurve"/>
    </contour>
    <contour>
      <point x="1133.0" y="324" type="line"/>
      <point x="1094.0" y="202"/>
      <point x="747.0" y="-22"/>
      <point x="582.0" y="-22" type="qcurve" smooth="yes"/>
      <point x="335.0" y="-22"/>
      <point x="8" y="160"/>
      <point x="8" y="328.0" type="qcurve" smooth="yes"/>
      <point x="8" y="482"/>
      <point x="315.0" y="679.0"/>
      <point x="594.0" y="679.0" type="qcurve" smooth="yes"/>
      <point x="792.0" y="679"/>
      <point x="1049.0" y="603"/>
      <point x="1133.0" y="531" type="qcurve"/>
      <point x="1133.0" y="417" type="line"/>
      <point x="1055.0" y="435"/>
      <point x="807.0" y="455"/>
      <point x="783.0" y="455" type="qcurve" smooth="yes"/>
      <point x="688.0" y="455"/>
      <point x="515" y="422"/>
      <point x="515.0" y="364" type="qcurve" smooth="yes"/>
      <point x="515.0" y="286.0"/>
      <point x="664" y="264.0"/>
      <point x="784.0" y="264.0" type="qcurve" smooth="yes"/>
      <point x="833" y="264"/>
      <point x="1038.0" y="316"/>
      <point x="1133.0" y="423" type="qcurve"/>
    </contour>
  </outline>
</glyph>
<glyph name="b" format="2">
  <advance width="1853"/>
  <unicode hex="0062"/>
  <outline>
    <contour>
      <point x="155" y="2" type="line"/>
      <point x="155" y="1540" type="line"/>
      <point x="715" y="1540" type="line"/>
      <point x="705" y="2" type="line"/>
    </contour>
    <contour>
      <point x="608.0" y="811" type="line" smooth="yes"/>
      <point x="608.0" y="882.0"/>
      <point x="889.0" y="1082"/>
      <point x="1141.0" y="1082.0" type="qcurve" smooth="yes"/>
      <point x="1156" y="1082.0" type="line" smooth="yes"/>
      <point x="1445.0" y="1082.0"/>
      <point x="1770.0" y="751.0"/>
      <point x="1770" y="530.0" type="qcurve" smooth="yes"/>
      <point x="1770" y="524.0" type="line" smooth="yes"/>
      <point x="1770.0" y="293.0"/>
      <point x="1445" y="-23"/>
      <point x="1161" y="-23.0" type="qcurve" smooth="yes"/>
      <point x="1153.0" y="-23" type="line" smooth="yes"/>
      <point x="889.0" y="-23"/>
      <point x="608.0" y="170"/>
      <point x="608.0" y="201" type="qcurve" smooth="yes"/>
    </contour>
    <contour>
      <point x="733.0" y="622" type="qcurve" smooth="yes"/>
      <point x="733.0" y="429" type="line" smooth="yes"/>
      <point x="733.0" y="352"/>
      <point x="880.0" y="292.0"/>
      <point x="960.0" y="292.0" type="qcurve" smooth="yes"/>
      <point x="971.0" y="292.0" type="line" smooth="yes"/>
      <point x="1085.0" y="292.0"/>
      <point x="1220.0" y="356.0"/>
      <point x="1220.0" y="439" type="qcurve" smooth="yes"/>
      <point x="1220.0" y="621" type="line" smooth="yes"/>
      <point x="1220.0" y="709.0"/>
      <point x="1066.0" y="754.0"/>
      <point x="953.0" y="754.0" type="qcurve" smooth="yes"/>
      <point x="944.0" y="754.0" type="line" smooth="yes"/>
      <point x="862.0" y="754.0"/>
      <point x="733.0" y="666.0"/>
    </contour>
  </outline>
</glyph>
<glyph name="c" format="2">
  <advance width="1603"/>
  <unicode hex="0063"/>
  <outline>
    <contour>
      <point x="1600.0" y="418.0" type="line"/>
      <point x="1596" y="351.0" type="line" smooth="yes"/>
      <point x="1579" y="188"/>
      <point x="1219.0" y="-25.0"/>
      <point x="872" y="-25.0" type="qcurve" smooth="yes"/>
      <point x="861" y="-25.0" type="line" smooth="yes"/>
      <point x="487.0" y="-25.0"/>
      <point x="60" y="259.0"/>
      <point x="60" y="513.0" type="qcurve" smooth="yes"/>
      <point x="60" y="524.0" type="line" smooth="yes"/>
      <point x="60" y="785.0"/>
      <point x="493.0" y="1082.0"/>
      <point x="852" y="1082.0" type="qcurve" smooth="yes"/>
      <point x="864" y="1082.0" type="line" smooth="yes"/>
      <point x="1222.0" y="1082.0"/>
      <point x="1580" y="855.0"/>
      <point x="1596" y="682.0" type="qcurve" smooth="yes"/>
      <point x="1598" y="604.0" type="line"/>
      <point x="1089" y="605.0" type="line"/>
      <point x="1087.0" y="687" type="line" smooth="yes"/>
      <point x="1084" y="706"/>
      <point x="1008.0" y="740"/>
      <point x="884.0" y="740" type="qcurve" smooth="yes"/>
      <point x="887.0" y="740.0" type="line" smooth="yes"/>
      <point x="742.0" y="740"/>
      <point x="661" y="699.0"/>
      <point x="661.0" y="643" type="qcurve" smooth="yes"/>
      <point x="661.0" y="420" type="line" smooth="yes"/>
      <point x="661.0" y="361.0"/>
      <point x="742.0" y="305"/>
      <point x="883.0" y="305" type="qcurve" smooth="yes"/>
      <point x="879.0" y="305" type="line" smooth="yes"/>
      <point x="1002.0" y="305"/>
      <point x="1083.0" y="335"/>
      <point x="1092.0" y="370" type="qcurve" smooth="yes"/>
      <point x="1095" y="420.0" type="line"/>
    </contour>
  </outline>
</glyph>
<glyph name="d" format="2">
  <advance width="1836"/>
  <unicode hex="0064"/>
  <outline>
    <contour>
      <point x="1681" y="0" type="line"/>
      <point x="1141" y="0" type="line"/>
      <point x="1121" y="1540" type="line"/>
      <point x="1681" y="1540" type="line"/>
    </contour>
    <contour>
      <point x="1216.0" y="762.0" type="qcurve" smooth="yes"/>
      <point x="1216.0" y="258.0" type="line" smooth="yes"/>
      <point x="1216.0" y="137.0"/>
      <point x="903.0" y="-25.0"/>
      <point x="669.0" y="-25.0" type="qcurve" smooth="yes"/>
      <point x="661.0" y="-25.0" type="line" smooth="yes"/>
      <point x="375" y="-25"/>
      <point x="44.0" y="284.0"/>
      <point x="44.0" y="515.0" type="qcurve" smooth="yes"/>
      <point x="44.0" y="528.0" type="line" smooth="yes"/>
      <point x="44.0" y="762.0"/>
      <point x="390.0" y="1083.0"/>
      <point x="675.0" y="1083.0" type="qcurve" smooth="yes"/>
      <point x="684.0" y="1083.0" type="line" smooth="yes"/>
      <point x="949.0" y="1083.0"/>
      <point x="1216.0" y="915.0"/>
    </contour>
    <contour>
      <point x="1093" y="617.0" type="line" smooth="yes"/>
      <point x="1093.0" y="697.0"/>
      <point x="953.0" y="755.0"/>
      <point x="844" y="755.0" type="qcurve" smooth="yes"/>
      <point x="838" y="755.0" type="line" smooth="yes"/>
      <point x="731" y="755.0"/>
      <point x="597.0" y="693.0"/>
      <point x="597.0" y="609.0" type="qcurve" smooth="yes"/>
      <point x="597.0" y="422.0" type="line" smooth="yes"/>
      <point x="597.0" y="343.0"/>
      <point x="733" y="287.0"/>
      <point x="838" y="287.0" type="qcurve" smooth="yes"/>
      <point x="844" y="287.0" type="line" smooth="yes"/>
      <point x="946.0" y="287.0"/>
      <point x="1093.0" y="331.0"/>
      <point x="1093" y="415.0" type="qcurve" smooth="yes"/>
    </contour>
  </outline>
</glyph>
<glyph name="e" format="2">
  <advance width="1665"/>
  <unicode hex="0065"/>
  <outline>
    <contour>
      <point x="1616" y="368.0" type="line"/>
      <point x="1613" y="344.0" type="line" smooth="yes"/>
      <point x="1588" y="179"/>
      <point x="1212.0" y="-25.0"/>
      <point x="862" y="-25.0" type="qcurve" smooth="yes"/>
      <point x="853" y="-25.0" type="line" smooth="yes"/>
      <point x="506.0" y="-25"/>
      <point x="59" y="253.0"/>
      <point x="59" y="513.0" type="qcurve" smooth="yes"/>
      <point x="59" y="533.0" type="line" smooth="yes"/>
      <point x="59" y="781.0"/>
      <point x="493.0" y="1082.0"/>
      <point x="836" y="1082.0" type="qcurve" smooth="yes"/>
      <point x="860" y="1082.0" type="line" smooth="yes"/>
      <point x="1238.0" y="1082.0"/>
      <point x="1579" y="776"/>
      <point x="1603" y="566" type="qcurve" smooth="yes"/>
      <point x="1622" y="398.0" type="line"/>
      <point x="216" y="398" type="line"/>
      <point x="216" y="646" type="line"/>
      <point x="1110" y="646.0" type="line"/>
      <point x="1102.0" y="694.0" type="line" smooth="yes"/>
      <point x="1086" y="708"/>
      <point x="973" y="762"/>
      <point x="877.0" y="762.0" type="qcurve" smooth="yes"/>
      <point x="878.0" y="762.0" type="line" smooth="yes"/>
      <point x="763.0" y="762.0"/>
      <point x="628" y="694.0"/>
      <point x="628.0" y="605.0" type="qcurve" smooth="yes"/>
      <point x="628.0" y="441.0" type="line" smooth="yes"/>
      <point x="628" y="353.0"/>
      <point x="771.0" y="284.0"/>
      <point x="884.0" y="284.0" type="qcurve" smooth="yes"/>
      <point x="900.0" y="284.0" type="line" smooth="yes"/>
      <point x="990.0" y="284"/>
      <point x="1110" y="321"/>
      <point x="1132.0" y="341.0" type="qcurve" smooth="yes"/>
      <point x="1142" y="373.0" type="line"/>
    </contour>
  </outline>
</glyph>
<glyph name="f" format="2">
  <advance width="855"/>
  <unicode hex="0066"/>
  <outline>
    <contour>
      <point x="908" y="649" type="line"/>
      <point x="-30" y="649" type="line"/>
      <point x="-30" y="1030" type="line"/>
      <point x="908" y="1030" type="line"/>
    </contour>
    <contour>
      <point x="634.0" y="1068.0" type="qcurve" smooth="yes"/>
      <point x="644" y="0" type="line"/>
      <point x="88" y="0.0" type="line"/>
      <point x="88.0" y="1138.0" type="line" smooth="yes"/>
      <point x="88.0" y="1335.0"/>
      <point x="388" y="1605.0"/>
      <point x="610" y="1605.0" type="qcurve" smooth="yes"/>
      <point x="727.0" y="1605.0"/>
      <point x="908.0" y="1577.0"/>
      <point x="944" y="1557" type="qcurve"/>
      <point x="938" y="1253" type="line"/>
      <point x="917.0" y="1258.0"/>
      <point x="819" y="1265"/>
      <point x="784" y="1265" type="qcurve" smooth="yes"/>
      <point x="703" y="1265"/>
      <point x="633.0" y="1181.0"/>
    </contour>
  </outline>
</glyph>
<glyph name="g" format="2">
  <advance width="1828"/>
  <unicode hex="0067"/>
  <outline>
    <contour>
      <point x="1205" y="825.0" type="qcurve" smooth="yes"/>
      <point x="1205" y="222.0" type="line" smooth="yes"/>
      <point x="1205.0" y="147.0"/>
      <point x="934" y="-35.0"/>
      <point x="719" y="-35.0" type="qcurve" smooth="yes"/>
      <point x="669.0" y="-35.0" type="line" smooth="yes"/>
      <point x="358" y="-35"/>
      <point x="54" y="247.0"/>
      <point x="54.0" y="526.0" type="qcurve" smooth="yes"/>
      <point x="54.0" y="551.0" type="line" smooth="yes"/>
      <point x="54" y="792.0"/>
      <point x="399.0" y="1083.0"/>
      <point x="683.0" y="1083.0" type="qcurve" smooth="yes"/>
      <point x="733" y="1083.0" type="line" smooth="yes"/>
      <point x="951" y="1083.0"/>
      <point x="1205" y="921.0"/>
    </contour>
    <contour>
      <point x="1106" y="617.0" type="line" smooth="yes"/>
      <point x="1106" y="707.0"/>
      <point x="967" y="755.0"/>
      <point x="859" y="755.0" type="qcurve" smooth="yes"/>
      <point x="853" y="755.0" type="line" smooth="yes"/>
      <point x="748" y="755.0"/>
      <point x="615" y="693.0"/>
      <point x="615" y="617.0" type="qcurve" smooth="yes"/>
      <point x="615" y="425.0" type="line" smooth="yes"/>
      <point x="615" y="333.0"/>
      <point x="750" y="277.0"/>
      <point x="853" y="277.0" type="qcurve" smooth="yes"/>
      <point x="859" y="277.0" type="line" smooth="yes"/>
      <point x="959" y="277.0"/>
      <point x="1106.0" y="331.0"/>
      <point x="1106" y="415.0" type="qcurve" smooth="yes"/>
    </contour>
    <contour>
      <point x="106" y="-73.0" type="line"/>
      <point x="180" y="-88.0"/>
      <point x="388" y="-126.0"/>
      <point x="589" y="-126.0" type="qcurve" smooth="yes"/>
      <point x="870.0" y="-126.0"/>
      <point x="1136.0" y="69.0"/>
      <point x="1136" y="258.0" type="qcurve" smooth="yes"/>
      <point x="1136" y="1040.0" type="line"/>
      <point x="1673" y="1040.0" type="line"/>
      <point x="1673.0" y="347.0" type="line" smooth="yes"/>
      <point x="1673.0" y="-193.0"/>
      <point x="1046" y="-490.0"/>
      <point x="671" y="-490.0" type="qcurve" smooth="yes"/>
      <point x="385" y="-490.0"/>
      <point x="152" y="-453.0"/>
      <point x="68" y="-437.0" type="qcurve"/>
    </contour>
  </outline>
</glyph>
<glyph name="i" format="2">
  <advance width="733"/>
  <unicode hex="0069"/>
  <outline>
    <contour>
      <point x="56" y="0" type="line"/>
      <point x="56" y="1040" type="line"/>
      <point x="610" y="1040" type="line"/>
      <point x="610" y="0" type="line"/>
    </contour>
    <contour>
      <point x="328.0" y="1038" type="line" smooth="yes"/>
      <point x="471.0" y="1038"/>
      <point x="621.0" y="1193"/>
      <point x="621.0" y="1315" type="qcurve" smooth="yes"/>
      <point x="621.0" y="1332" type="line" smooth="yes"/>
      <point x="621.0" y="1453"/>
      <point x="474.0" y="1611"/>
      <point x="328.0" y="1611" type="qcurve" smooth="yes"/>
      <point x="322.0" y="1611" type="line" smooth="yes"/>
      <point x="187.0" y="1611"/>
      <point x="38.0" y="1453"/>
      <point x="38.0" y="1332" type="qcurve" smooth="yes"/>
      <point x="38.0" y="1315" type="line" smooth="yes"/>
      <point x="38.0" y="1190"/>
      <point x="183.0" y="1038"/>
      <point x="322.0" y="1038" type="qcurve" smooth="yes"/>
    </contour>
    <contour>
      <point x="519" y="640" type="line"/>
      <point x="67" y="620" type="line"/>
      <point x="67" y="1020" type="line"/>
      <point x="519" y="1040" type="line"/>
    </contour>
  </outline>
</glyph>
<glyph name="j" format="2">
  <advance width="712"/>
  <unicode hex="006A"/>
  <outline>
    <contour>
      <point x="604" y="197" type="line" smooth="yes"/>
      <point x="604" y="-222"/>
      <point x="122" y="-498"/>
      <point x="-224" y="-498" type="qcurve" smooth="yes"/>
      <point x="-310" y="-498"/>
      <point x="-417" y="-488"/>
      <point x="-453" y="-479" type="qcurve"/>
      <point x="-458" y="-33" type="line"/>
      <point x="-432" y="-38"/>
      <point x="-342" y="-53"/>
      <point x="-273" y="-53" type="qcurve" smooth="yes"/>
      <point x="-149" y="-53"/>
      <point x="54" y="82"/>
      <point x="54" y="271" type="qcurve" smooth="yes"/>
      <point x="54" y="1042" type="line"/>
      <point x="604" y="1042" type="line"/>
    </contour>
    <contour>
      <point x="327" y="1038" type="line" smooth="yes"/>
      <point x="470" y="1038"/>
      <point x="620" y="1193"/>
      <point x="620" y="1315" type="qcurve" smooth="yes"/>
      <point x="620" y="1332" type="line" smooth="yes"/>
      <point x="620" y="1453"/>
      <point x="473" y="1611"/>
      <point x="327" y="1611" type="qcurve" smooth="yes"/>
      <point x="321" y="1611" type="line" smooth="yes"/>
      <point x="186" y="1611"/>
      <point x="37" y="1453"/>
      <point x="37" y="1332" type="qcurve" smooth="yes"/>
      <point x="37" y="1315" type="line" smooth="yes"/>
      <point x="37" y="1190"/>
      <point x="182" y="1038"/>
      <point x="321" y="1038" type="qcurve" smooth="yes"/>
    </contour>
    <contour>
      <point x="422" y="640" type="line"/>
      <point x="90" y="620" type="line"/>
      <point x="90" y="1022" type="line"/>
      <point x="422" y="1042" type="line"/>
    </contour>
  </outline>
</glyph>
<glyph name="k" format="2">
  <advance width="1725"/>
  <unicode hex="006B"/>
  <outline>
    <contour>
      <point x="133" y="0" type="line"/>
      <point x="133" y="1540" type="line"/>
      <point x="691" y="1540" type="line"/>
      <point x="691" y="0" type="line"/>
    </contour>
    <contour>
      <point x="1045" y="558" type="line"/>
      <point x="691" y="374" type="line"/>
      <point x="691" y="750" type="line"/>
      <point x="757" y="776" type="line"/>
      <point x="1195" y="1040" type="line"/>
      <point x="1801" y="1040" type="line"/>
      <point x="1262" y="638" type="line"/>
    </contour>
    <contour>
      <point x="1168" y="841" type="line"/>
      <point x="1864" y="0" type="line"/>
      <point x="1235" y="0" type="line"/>
      <point x="720" y="607" type="line"/>
    </contour>
  </outline>
</glyph>
<glyph name="l" format="2">
  <advance width="735"/>
  <unicode hex="006C"/>
  <outline>
    <contour>
      <point x="150" y="289" type="qcurve" smooth="yes"/>
      <point x="160" y="1539" type="line"/>
      <point x="710" y="1539" type="line"/>
      <point x="710" y="1" type="line"/>
      <point x="393" y="1"/>
      <point x="149.0" y="109.0"/>
    </contour>
    <contour>
      <point x="660" y="64" type="line"/>
      <point x="523" y="21" type="line"/>
      <point x="222" y="435" type="line"/>
      <point x="660" y="500" type="line"/>
    </contour>
  </outline>
</glyph>
<glyph name="m" format="2">
  <advance width="2500"/>
  <unicode hex="006D"/>
  <outline>
    <contour>
      <point x="155" y="0" type="line"/>
      <point x="155" y="1040" type="line"/>
      <point x="705" y="1040" type="line"/>
      <point x="715" y="0" type="line"/>
    </contour>
    <contour>
      <point x="489" y="470" type="line"/>
      <point x="496" y="661"/>
      <point x="818" y="1080"/>
      <point x="1094" y="1080.0" type="qcurve" smooth="yes"/>
      <point x="1287" y="1080.0"/>
      <point x="1553" y="816"/>
      <point x="1555" y="605" type="qcurve" smooth="yes"/>
      <point x="1555" y="0" type="line"/>
      <point x="995" y="0" type="line"/>
      <point x="995.0" y="587" type="line" smooth="yes"/>
      <point x="995" y="641"/>
      <point x="895" y="672"/>
      <point x="890" y="672" type="qcurve" smooth="yes"/>
      <point x="801" y="672"/>
      <point x="593" y="507"/>
      <point x="529" y="375" type="qcurve"/>
    </contour>
    <contour>
      <point x="1307" y="554" type="line"/>
      <point x="1314" y="718"/>
      <point x="1670" y="1080.0"/>
      <point x="1919" y="1080.0" type="qcurve" smooth="yes"/>
      <point x="2116" y="1080"/>
      <point x="2383" y="816"/>
      <point x="2385" y="605" type="qcurve" smooth="yes"/>
      <point x="2385" y="0" type="line"/>
      <point x="1824" y="0" type="line"/>
      <point x="1824.0" y="587" type="line" smooth="yes"/>
      <point x="1824" y="641"/>
      <point x="1724" y="672"/>
      <point x="1719" y="672" type="qcurve" smooth="yes"/>
      <point x="1630" y="672"/>
      <point x="1422" y="507"/>
      <point x="1358" y="375" type="qcurve"/>
    </contour>
  </outline>
</glyph>
<glyph name="n" format="2">
  <advance width="1650"/>
  <unicode hex="006E"/>
  <outline>
    <contour>
      <point x="155" y="0" type="line"/>
      <point x="155" y="1040" type="line"/>
      <point x="705" y="1040" type="line"/>
      <point x="715" y="0" type="line"/>
    </contour>
    <contour>
      <point x="463" y="500" type="line"/>
      <point x="470" y="691"/>
      <point x="766.0" y="1080.0"/>
      <point x="1022" y="1080.0" type="qcurve" smooth="yes"/>
      <point x="1265" y="1080.0"/>
      <point x="1534.0" y="816.0"/>
      <point x="1534" y="605" type="qcurve" smooth="yes"/>
      <point x="1534" y="0" type="line"/>
      <point x="973" y="0" type="line"/>
      <point x="973.0" y="577" type="line" smooth="yes"/>
      <point x="973.0" y="631.0"/>
      <point x="873" y="662.0"/>
      <point x="814" y="662.0" type="qcurve" smooth="yes"/>
      <point x="749" y="662"/>
      <point x="567" y="511"/>
      <point x="503" y="379" type="qcurve"/>
    </contour>
  </outline>
</glyph>
<glyph name="o" format="2">
  <advance width="1766"/>
  <unicode hex="006F"/>
  <outline>
    <contour>
      <point x="875" y="-24.0" type="line" smooth="yes"/>
      <point x="501" y="-24.0"/>
      <point x="60" y="272"/>
      <point x="60" y="512.0" type="qcurve" smooth="yes"/>
      <point x="60" y="529.0" type="line" smooth="yes"/>
      <point x="60" y="778"/>
      <point x="500" y="1081.0"/>
      <point x="871" y="1081.0" type="qcurve" smooth="yes"/>
      <point x="879" y="1081.0" type="line" smooth="yes"/>
      <point x="1267" y="1081.0"/>
      <point x="1707" y="782"/>
      <point x="1707.0" y="527.0" type="qcurve" smooth="yes"/>
      <point x="1707.0" y="516.0" type="line" smooth="yes"/>
      <point x="1707" y="272"/>
      <point x="1262" y="-24.0"/>
      <point x="883" y="-24.0" type="qcurve" smooth="yes"/>
    </contour>
    <contour>
      <point x="886.0" y="309" type="line" smooth="yes"/>
      <point x="1012.0" y="309.0"/>
      <point x="1134.0" y="364.0"/>
      <point x="1134.0" y="451" type="qcurve" smooth="yes"/>
      <point x="1134.0" y="614" type="line" smooth="yes"/>
      <point x="1134" y="696"/>
      <point x="1020.0" y="747.0"/>
      <point x="886.0" y="747" type="qcurve" smooth="yes"/>
      <point x="882.0" y="747" type="line" smooth="yes"/>
      <point x="737.0" y="747.0"/>
      <point x="640" y="705.0"/>
      <point x="640.0" y="615" type="qcurve" smooth="yes"/>
      <point x="640.0" y="453" type="line" smooth="yes"/>
      <point x="640" y="364.0"/>
      <point x="741.0" y="309.0"/>
      <point x="882.0" y="309" type="qcurve" smooth="yes"/>
    </contour>
  </outline>
</glyph>
<glyph name="p" format="2">
  <advance width="1831"/>
  <unicode hex="0070"/>
  <outline>
    <contour>
      <point x="155" y="-470" type="line"/>
      <point x="155" y="1040" type="line"/>
      <point x="695" y="1040" type="line"/>
      <point x="715" y="-470" type="line"/>
    </contour>
    <contour>
      <point x="588.0" y="770" type="line" smooth="yes"/>
      <point x="588.0" y="857"/>
      <point x="867.0" y="1091"/>
      <point x="1154.0" y="1091" type="qcurve" smooth="yes"/>
      <point x="1165" y="1091.0" type="line" smooth="yes"/>
      <point x="1474.0" y="1091.0"/>
      <point x="1770.0" y="780.0"/>
      <point x="1770" y="539.0" type="qcurve" smooth="yes"/>
      <point x="1770" y="524.0" type="line" smooth="yes"/>
      <point x="1770.0" y="285.0"/>
      <point x="1455.0" y="-22.0"/>
      <point x="1152" y="-22.0" type="qcurve" smooth="yes"/>
      <point x="1132" y="-22.0" type="line" smooth="yes"/>
      <point x="850" y="-22.0"/>
      <point x="588" y="115.0"/>
      <point x="588" y="192.0" type="qcurve" smooth="yes"/>
    </contour>
    <contour>
      <point x="733.0" y="631" type="qcurve" smooth="yes"/>
      <point x="733.0" y="429" type="line" smooth="yes"/>
      <point x="733.0" y="332.0"/>
      <point x="879.0" y="292.0"/>
      <point x="956.0" y="292.0" type="qcurve" smooth="yes"/>
      <point x="963.0" y="292.0" type="line" smooth="yes"/>
      <point x="1074.0" y="292.0"/>
      <point x="1200.0" y="356.0"/>
      <point x="1200.0" y="439" type="qcurve" smooth="yes"/>
      <point x="1200.0" y="621" type="line" smooth="yes"/>
      <point x="1200.0" y="709.0"/>
      <point x="1074.0" y="754.0"/>
      <point x="967.0" y="754.0" type="qcurve" smooth="yes"/>
      <point x="960.0" y="754.0" type="line" smooth="yes"/>
      <point x="871.0" y="754.0"/>
      <point x="733.0" y="668"/>
    </contour>
  </outline>
</glyph>
<glyph name="q" format="2">
  <advance width="1838"/>
  <unicode hex="0071"/>
  <outline>
    <contour>
      <point x="1683" y="-480" type="line"/>
      <point x="1123" y="-480" type="line"/>
      <point x="1133" y="1060" type="line"/>
      <point x="1683" y="1060" type="line"/>
    </contour>
    <contour>
      <point x="1219.0" y="762.0" type="qcurve" smooth="yes"/>
      <point x="1219.0" y="258.0" type="line" smooth="yes"/>
      <point x="1219.0" y="177.0"/>
      <point x="903.0" y="-25.0"/>
      <point x="670.0" y="-25.0" type="qcurve" smooth="yes"/>
      <point x="661.0" y="-25.0" type="line" smooth="yes"/>
      <point x="375" y="-25"/>
      <point x="44.0" y="284.0"/>
      <point x="44.0" y="506.0" type="qcurve" smooth="yes"/>
      <point x="44.0" y="541.0" type="line" smooth="yes"/>
      <point x="44.0" y="762.0"/>
      <point x="390.0" y="1083.0"/>
      <point x="675.0" y="1083.0" type="qcurve" smooth="yes"/>
      <point x="684.0" y="1083.0" type="line" smooth="yes"/>
      <point x="949.0" y="1083.0"/>
      <point x="1219.0" y="885.0"/>
    </contour>
    <contour>
      <point x="1096" y="617.0" type="line" smooth="yes"/>
      <point x="1096.0" y="707.0"/>
      <point x="955.0" y="755.0"/>
      <point x="845" y="755.0" type="qcurve" smooth="yes"/>
      <point x="839" y="755.0" type="line" smooth="yes"/>
      <point x="731" y="755.0"/>
      <point x="597.0" y="693.0"/>
      <point x="597.0" y="617.0" type="qcurve" smooth="yes"/>
      <point x="597.0" y="415.0" type="line" smooth="yes"/>
      <point x="597.0" y="343.0"/>
      <point x="734" y="287.0"/>
      <point x="839" y="287.0" type="qcurve" smooth="yes"/>
      <point x="845" y="287.0" type="line" smooth="yes"/>
      <point x="948" y="287.0"/>
      <point x="1096" y="341.0"/>
      <point x="1096" y="415.0" type="qcurve" smooth="yes"/>
    </contour>
  </outline>
</glyph>
<glyph name="r" format="2">
  <advance width="1176"/>
  <unicode hex="0072"/>
  <outline>
    <contour>
      <point x="155" y="0" type="line"/>
      <point x="155" y="1040" type="line"/>
      <point x="718" y="1040" type="line"/>
      <point x="718" y="0" type="line"/>
    </contour>
    <contour>
      <point x="504.0" y="712" type="line"/>
      <point x="615.0" y="856"/>
      <point x="967" y="1082.0"/>
      <point x="1118.0" y="1082.0" type="qcurve" smooth="yes"/>
      <point x="1148" y="1082"/>
      <point x="1199" y="1079.0"/>
      <point x="1216" y="1076.0" type="qcurve"/>
      <point x="1216" y="607.0" type="line"/>
      <point x="1195" y="611.0"/>
      <point x="1137" y="616.0"/>
      <point x="1108" y="616.0" type="qcurve" smooth="yes"/>
      <point x="933" y="616"/>
      <point x="639" y="541.0"/>
      <point x="533" y="437.0" type="qcurve"/>
    </contour>
  </outline>
</glyph>
<glyph name="s" format="2">
  <advance width="1630"/>
  <unicode hex="0073"/>
  <outline>
    <contour>
      <point x="1050.0" y="349.0" type="line" smooth="yes"/>
      <point x="1050.0" y="337.0"/>
      <point x="996.0" y="345"/>
      <point x="694.0" y="364" type="qcurve" smooth="yes"/>
      <point x="317" y="398"/>
      <point x="56.0" y="580.0"/>
      <point x="56.0" y="713.0" type="qcurve" smooth="yes"/>
      <point x="56.0" y="723.0" type="line" smooth="yes"/>
      <point x="56.0" y="886"/>
      <point x="454.0" y="1081.0"/>
      <point x="807.0" y="1081.0" type="qcurve" smooth="yes"/>
      <point x="855.0" y="1081.0" type="line" smooth="yes"/>
      <point x="1209.0" y="1081.0"/>
      <point x="1535" y="917"/>
      <point x="1553.0" y="757.0" type="qcurve" smooth="yes"/>
      <point x="1557.0" y="700.0" type="line"/>
      <point x="1034.0" y="700.0" type="line"/>
      <point x="1032.0" y="724.0" type="line" smooth="yes"/>
      <point x="1028.0" y="761"/>
      <point x="913.0" y="768.0"/>
      <point x="847.0" y="768.0" type="qcurve" smooth="yes"/>
      <point x="812.0" y="768.0" type="line" smooth="yes"/>
      <point x="722" y="768"/>
      <point x="612.0" y="756.0"/>
      <point x="612.0" y="731.0" type="qcurve" smooth="yes"/>
      <point x="612.0" y="730.0" type="line" smooth="yes"/>
      <point x="612.0" y="725.0"/>
      <point x="707.0" y="724"/>
      <point x="967.0" y="725" type="qcurve" smooth="yes"/>
      <point x="1320.0" y="704"/>
      <point x="1585.0" y="535.0"/>
      <point x="1585.0" y="413.0" type="qcurve" smooth="yes"/>
      <point x="1585.0" y="392.0" type="line" smooth="yes"/>
      <point x="1585.0" y="217.0"/>
      <point x="1216.0" y="-25.0"/>
      <point x="839.0" y="-25.0" type="qcurve" smooth="yes"/>
      <point x="834.0" y="-25.0" type="line" smooth="yes"/>
      <point x="431.0" y="-25"/>
      <point x="93.0" y="162"/>
      <point x="73.0" y="304.0" type="qcurve" smooth="yes"/>
      <point x="66.0" y="401.0" type="line"/>
      <point x="677.0" y="403.0" type="line"/>
      <point x="679.0" y="381.0" type="line" smooth="yes"/>
      <point x="686" y="316.0"/>
      <point x="773.0" y="280.0"/>
      <point x="859.0" y="280.0" type="qcurve" smooth="yes"/>
      <point x="867.0" y="280.0" type="line" smooth="yes"/>
      <point x="965.0" y="280.0"/>
      <point x="1050" y="313.0"/>
      <point x="1050.0" y="344.0" type="qcurve" smooth="yes"/>
    </contour>
  </outline>
</glyph>
<glyph name="t" format="2">
  <advance width="878"/>
  <unicode hex="0074"/>
  <outline>
    <contour>
      <point x="902" y="649" type="line"/>
      <point x="-33" y="649" type="line"/>
      <point x="-33" y="1037" type="line"/>
      <point x="902" y="1037" type="line"/>
    </contour>
    <contour>
      <point x="731.0" y="429" type="line" smooth="yes"/>
      <point x="731.0" y="401.0"/>
      <point x="782.0" y="353.0"/>
      <point x="775.0" y="353" type="qcurve" smooth="yes"/>
      <point x="799" y="353"/>
      <point x="837.0" y="375"/>
      <point x="800.0" y="363" type="qcurve"/>
      <point x="935.0" y="64" type="line"/>
      <point x="898.0" y="35"/>
      <point x="766.0" y="-22"/>
      <point x="619" y="-22" type="qcurve"/>
      <point x="440.0" y="-22"/>
      <point x="186" y="239.0"/>
      <point x="187.0" y="411" type="qcurve" smooth="yes"/>
      <point x="187" y="1259" type="line"/>
      <point x="731" y="1259" type="line"/>
    </contour>
  </outline>
</glyph>
<glyph name="v" format="2">
  <advance width="1433"/>
  <unicode hex="0076"/>
  <outline>
    <contour>
      <point x="441" y="1" type="line"/>
      <point x="-100" y="1041" type="line"/>
      <point x="445" y="1041" type="line"/>
      <point x="731" y="574" type="line"/>
      <point x="990" y="1041" type="line"/>
      <point x="1533" y="1041" type="line"/>
      <point x="998" y="1" type="line"/>
    </contour>
  </outline>
</glyph>
<glyph name="w" format="2">
  <advance width="2082"/>
  <unicode hex="0077"/>
  <outline>
    <contour>
      <point x="388" y="1" type="line"/>
      <point x="-60" y="1041" type="line"/>
      <point x="425.0" y="1041" type="line"/>
      <point x="681.0" y="688" type="line"/>
      <point x="818.0" y="1041" type="line"/>
      <point x="1310" y="1041.0" type="line"/>
      <point x="1469" y="688.0" type="line"/>
      <point x="1697" y="1041.0" type="line"/>
      <point x="2142" y="1041" type="line"/>
      <point x="1710" y="1" type="line"/>
      <point x="1210" y="1.0" type="line"/>
      <point x="1048" y="461" type="line"/>
      <point x="889" y="1.0" type="line"/>
    </contour>
  </outline>
</glyph>
<glyph name="x" format="2">
  <advance width="1334"/>
  <unicode hex="0078"/>
  <outline>
    <contour>
      <point x="-50" y="1" type="line"/>
      <point x="878" y="1041" type="line"/>
      <point x="1385" y="1041" type="line"/>
      <point x="457" y="1" type="line"/>
    </contour>
    <contour>
      <point x="849" y="1" type="line"/>
      <point x="-68" y="1041" type="line"/>
      <point x="489" y="1041" type="line"/>
      <point x="1415" y="1" type="line"/>
    </contour>
  </outline>
</glyph>
<glyph name="y" format="2">
  <advance width="1415"/>
  <unicode hex="0079"/>
  <outline>
    <contour>
      <point x="441" y="-9" type="qcurve"/>
      <point x="-109" y="1040" type="line"/>
      <point x="459.0" y="1040" type="line"/>
      <point x="726.0" y="552" type="line"/>
      <point x="988.0" y="1040" type="line"/>
      <point x="1515" y="1040" type="line"/>
      <point x="1009" y="33" type="line" smooth="yes"/>
      <point x="836" y="-363"/>
      <point x="382" y="-487"/>
      <point x="198" y="-487" type="qcurve" smooth="yes"/>
      <point x="75" y="-487"/>
      <point x="3" y="-487"/>
      <point x="-43" y="-472" type="qcurve"/>
      <point x="-27" y="-55" type="line"/>
      <point x="2.0" y="-63.0"/>
      <point x="107.0" y="-72.0"/>
      <point x="169" y="-72" type="qcurve" smooth="yes"/>
      <point x="197" y="-72"/>
      <point x="433.0" y="-68"/>
    </contour>
  </outline>
</glyph>
<glyph name="z" format="2">
  <advance width="1337"/>
  <unicode hex="007A"/>
  <outline>
    <contour>
      <point x="1339" y="1" type="line"/>
      <point x="18" y="1" type="line"/>
      <point x="13" y="337" type="line"/>
      <point x="644" y="661" type="line"/>
      <point x="19" y="661" type="line"/>
      <point x="19" y="1041" type="line"/>
      <point x="1318" y="1041" type="line"/>
      <point x="1318" y="726" type="line"/>
      <point x="653" y="377" type="line"/>
      <point x="1339" y="377" type="line"/>
    </contour>
  </outline>
</glyph>
<glyph name="braceleft" format="2">
  <advance width="1040"/>
  <unicode hex="007B"/>
  <outline>
    <contour>
      <point x="50.0" y="408" type="line"/>
      <point x="221.0" y="409"/>
      <point x="259" y="399.0"/>
      <point x="259.0" y="369.0" type="qcurve" smooth="yes"/>
      <point x="259" y="342.0"/>
      <point x="227" y="273.0"/>
      <point x="206" y="238.0" type="qcurve" smooth="yes"/>
      <point x="183" y="200.0"/>
      <point x="117.0" y="67.0"/>
      <point x="117.0" y="-66.0" type="qcurve" smooth="yes"/>
      <point x="117.0" y="-206.0"/>
      <point x="482.0" y="-419"/>
      <point x="845.0" y="-440" type="qcurve"/>
      <point x="1030" y="-75" type="line"/>
      <point x="809" y="-81"/>
      <point x="658" y="-24.0"/>
      <point x="658.0" y="-18.0" type="qcurve" smooth="yes"/>
      <point x="658" y="70.0"/>
      <point x="709" y="191.0"/>
      <point x="729" y="234.0" type="qcurve" smooth="yes"/>
      <point x="752" y="282.0"/>
      <point x="809" y="394.0"/>
      <point x="809.0" y="492.0" type="qcurve" smooth="yes"/>
      <point x="809" y="504.0"/>
      <point x="704" y="583"/>
      <point x="650" y="609" type="qcurve"/>
      <point x="704" y="637"/>
      <point x="809" y="716.0"/>
      <point x="809.0" y="719.0" type="qcurve" smooth="yes"/>
      <point x="809" y="810.0"/>
      <point x="755" y="910"/>
      <point x="729" y="950.0" type="qcurve" smooth="yes"/>
      <point x="705" y="986.0"/>
      <point x="638" y="1104"/>
      <point x="638.0" y="1193.0" type="qcurve" smooth="yes"/>
      <point x="638" y="1204.0"/>
      <point x="788" y="1236.0"/>
      <point x="1046" y="1224.0" type="qcurve"/>
      <point x="879" y="1552" type="line"/>
      <point x="560" y="1576"/>
      <point x="114" y="1416.0"/>
      <point x="114" y="1306.0" type="qcurve" smooth="yes"/>
      <point x="114" y="1196.0"/>
      <point x="180" y="1049.0"/>
      <point x="203" y="1005.0" type="qcurve" smooth="yes"/>
      <point x="225" y="963.0"/>
      <point x="257" y="884.0"/>
      <point x="257.0" y="854.0" type="qcurve" smooth="yes"/>
      <point x="257" y="817.0"/>
      <point x="218" y="817"/>
      <point x="47" y="815" type="qcurve"/>
    </contour>
  </outline>
</glyph>
<glyph name="bar" format="2">
  <advance width="1130"/>
  <unicode hex="007C"/>
  <outline>
    <contour>
      <point x="310" y="-500" type="line"/>
      <point x="310" y="1500" type="line"/>
      <point x="820" y="1500" type="line"/>
      <point x="820" y="-500" type="line"/>
    </contour>
  </outline>
</glyph>
<glyph name="asciitilde" format="2">
  <advance width="2420"/>
  <unicode hex="007E"/>
  <outline>
    <contour>
      <point x="1269" y="996.0" type="qcurve" smooth="yes"/>
      <point x="1174" y="1044.0"/>
      <point x="1008" y="1115.0"/>
      <point x="852" y="1115.0" type="qcurve" smooth="yes"/>
      <point x="675.0" y="1115.0"/>
      <point x="366" y="866.0"/>
      <point x="311" y="691.0" type="qcurve"/>
      <point x="594" y="491.0" type="line"/>
      <point x="626" y="560.0"/>
      <point x="777" y="628"/>
      <point x="882" y="628.0" type="qcurve"/>
      <point x="986.0" y="628.0"/>
      <point x="1096" y="590"/>
      <point x="1157" y="560.0" type="qcurve" smooth="yes"/>
      <point x="1243" y="516"/>
      <point x="1425" y="436.0"/>
      <point x="1591" y="436.0" type="qcurve" smooth="yes"/>
      <point x="1796" y="436.0"/>
      <point x="2108" y="673.0"/>
      <point x="2153" y="833.0" type="qcurve"/>
      <point x="1866" y="1062.0" type="line"/>
      <point x="1830" y="999.0"/>
      <point x="1661" y="916.0"/>
      <point x="1558" y="916.0" type="qcurve" smooth="yes"/>
      <point x="1455" y="916"/>
      <point x="1341" y="960"/>
    </contour>
  </outline>
</glyph>
